<svg xmlns="http://www.w3.org/2000/svg" width="21" height="21" viewBox="0 0 21 21">
    <g fill="#005C58" fill-rule="nonzero" stroke="#005C58" stroke-width=".3">
        <path d="M19.996 8.264a.3.3 0 0 0-.013-.065.317.317 0 0 0-.018-.054.284.284 0 0 0-.032-.049.299.299 0 0 0-.042-.049c-.005-.004-.007-.01-.012-.015l-3.046-2.365V3.216a.95.95 0 0 0-.95-.95h-3.432l-1.374-1.067a.939.939 0 0 0-1.155 0L8.548 2.265H5.116a.95.95 0 0 0-.95.95v2.452L1.12 8.032l-.012.015a.297.297 0 0 0-.043.05.283.283 0 0 0-.031.048.312.312 0 0 0-.018.054.3.3 0 0 0-.013.064c0 .006-.004.012-.004.019V19.05a.94.94 0 0 0 .186.559l.004.009.01.009a.945.945 0 0 0 .75.373h17.1c.295 0 .573-.14.751-.375l.009-.007.004-.01A.94.94 0 0 0 20 19.05V8.283c0-.007-.003-.013-.004-.02zM10.31 1.698a.304.304 0 0 1 .378 0l.73.567H9.582l.728-.567zM2.03 19.367l8.28-6.433a.304.304 0 0 1 .378 0l8.283 6.433H2.03zm9.048-6.932a.94.94 0 0 0-1.155 0l-8.29 6.438V8.765l5.19 4.03a.317.317 0 1 0 .388-.501L1.938 8.2 4.166 6.47v2.447a.317.317 0 0 0 .633 0v-5.7c0-.175.142-.317.317-.317h10.767c.175 0 .317.142.317.317v5.7a.317.317 0 1 0 .633 0V6.469L19.061 8.2l-5.281 4.101a.317.317 0 1 0 .388.5l5.199-4.036v10.108l-8.29-6.438z"/>
        <path d="M14 8.667V7.5a3.5 3.5 0 1 0-3.5 3.5.292.292 0 1 0 0-.583A2.917 2.917 0 1 1 13.417 7.5v1.167a.583.583 0 1 1-1.167 0V7.5a.292.292 0 1 0-.583 0A1.167 1.167 0 1 1 10.5 6.333a.292.292 0 1 0 0-.583 1.75 1.75 0 1 0 1.18 3.04A1.163 1.163 0 0 0 14 8.667z"/>
    </g>
</svg>
