<svg xmlns="http://www.w3.org/2000/svg" width="185" height="40" viewBox="0 0 185 40">
    <g fill="none" fill-rule="evenodd">
        <path fill="#FF7B00" d="M59.71 26.254c-.15.042-.386.082-.706.123a7.58 7.58 0 0 1-.952.061c-.315 0-.591-.023-.83-.072a1.454 1.454 0 0 1-.603-.255 1.1 1.1 0 0 1-.369-.513c-.082-.217-.123-.504-.123-.86v-3.193h-3.93v4.71c-.15.04-.387.081-.707.122a7.57 7.57 0 0 1-.952.061c-.314 0-.59-.023-.829-.072a1.458 1.458 0 0 1-.604-.255 1.105 1.105 0 0 1-.368-.513c-.082-.217-.124-.504-.124-.86V13.93c.151-.027.39-.064.717-.112.328-.047.641-.072.942-.072.314 0 .59.025.83.072.238.048.44.133.603.256.164.122.287.294.369.512.081.218.123.504.123.86v3.275h3.93v-4.79c.15-.028.39-.065.717-.113a6.65 6.65 0 0 1 .94-.072c.315 0 .592.025.83.072.24.048.44.133.604.256.164.122.287.294.369.512.082.218.123.504.123.86v10.81zM65.033 21.361c0 .833.16 1.47.48 1.914.321.444.768.666 1.342.666.573 0 1.013-.226 1.32-.676.307-.45.46-1.085.46-1.904s-.156-1.45-.47-1.893c-.314-.443-.757-.666-1.33-.666-.575 0-1.018.223-1.332.666-.314.444-.47 1.074-.47 1.893m7.165 0c0 .847-.13 1.6-.389 2.262a4.578 4.578 0 0 1-1.095 1.669 4.65 4.65 0 0 1-1.69 1.023c-.654.233-1.385.349-2.19.349-.805 0-1.535-.123-2.19-.368a4.836 4.836 0 0 1-1.69-1.055 4.7 4.7 0 0 1-1.095-1.67c-.26-.654-.389-1.39-.389-2.21 0-.805.13-1.535.389-2.19.26-.655.624-1.211 1.095-1.669a4.836 4.836 0 0 1 1.69-1.055c.655-.245 1.385-.368 2.19-.368.805 0 1.536.127 2.19.38a4.93 4.93 0 0 1 1.69 1.064 4.697 4.697 0 0 1 1.095 1.668c.259.655.389 1.379.389 2.17M74.983 23.798c-.15-.341-.311-.724-.481-1.147a26.075 26.075 0 0 1-.533-1.454 38.98 38.98 0 0 1-.573-1.873 63.036 63.036 0 0 1-.625-2.426c.192-.19.447-.358.768-.502a2.55 2.55 0 0 1 1.055-.214c.477 0 .873.099 1.187.296.313.198.546.57.696 1.116l1.617 5.63h.082c.164-.463.324-.969.482-1.515.157-.546.31-1.108.46-1.689.15-.58.29-1.16.42-1.74.13-.58.242-1.15.338-1.71a3.41 3.41 0 0 1 1.617-.388c.477 0 .873.102 1.188.307.313.205.47.56.47 1.064 0 .369-.048.796-.143 1.28a18.9 18.9 0 0 1-.38 1.546c-.156.546-.34 1.109-.551 1.688-.213.58-.434 1.15-.666 1.71-.233.56-.471 1.088-.717 1.586-.245.499-.484.945-.716 1.342a14.319 14.319 0 0 1-1.065 1.637 5.851 5.851 0 0 1-.941.993c-.3.239-.6.402-.901.491-.3.089-.615.134-.942.134-.574 0-1.037-.171-1.392-.513-.355-.34-.567-.784-.635-1.33.437-.34.874-.72 1.31-1.136.437-.417.833-.843 1.188-1.28-.232-.068-.481-.228-.747-.481-.266-.252-.557-.727-.87-1.422"/>
        <path fill="#B3B2B2" d="M84.195 16.796a2.635 2.635 0 0 1-.265-.614 2.686 2.686 0 0 1-.124-.82c0-.532.12-.914.359-1.146.238-.232.549-.348.93-.348h8.927c.095.15.184.355.265.614.083.26.124.532.124.82 0 .531-.12.914-.358 1.145-.239.233-.55.349-.932.349h-2.272v9.458c-.15.042-.386.082-.707.123-.32.041-.638.061-.951.061a4.21 4.21 0 0 1-.83-.072 1.454 1.454 0 0 1-.604-.255 1.107 1.107 0 0 1-.368-.512c-.082-.218-.123-.505-.123-.86v-7.943h-3.071zM98.342 26.315a6.638 6.638 0 0 1-1.556.185c-.3 0-.57-.021-.81-.062a1.384 1.384 0 0 1-.603-.245 1.183 1.183 0 0 1-.378-.502c-.09-.212-.134-.488-.134-.829V18.72c0-.313.058-.584.174-.808.116-.226.284-.427.502-.604.219-.178.487-.339.808-.481a8.492 8.492 0 0 1 2.181-.635c.396-.061.792-.093 1.187-.093.656 0 1.174.127 1.557.38.382.252.572.664.572 1.238 0 .191-.027.379-.081.563a2.585 2.585 0 0 1-.205.502 9.705 9.705 0 0 0-1.76.164c-.287.054-.557.112-.81.173a3.575 3.575 0 0 0-.644.215v6.981zM107.022 24.125c.232 0 .488-.024.768-.072.28-.048.488-.113.624-.194V22.22l-1.473.122c-.383.028-.696.11-.943.247a.662.662 0 0 0-.368.614c0 .273.105.495.317.665.212.17.57.256 1.075.256m-.163-8.046c.736 0 1.408.075 2.016.226.607.15 1.126.378 1.556.686.43.307.76.695.992 1.166.233.47.348 1.027.348 1.669v4.585c0 .355-.098.646-.297.87a2.95 2.95 0 0 1-.705.584c-.888.532-2.137.799-3.747.799-.723 0-1.376-.07-1.955-.205-.58-.136-1.078-.341-1.495-.615a2.825 2.825 0 0 1-.962-1.044c-.225-.422-.338-.914-.338-1.474 0-.941.28-1.664.84-2.17.56-.504 1.425-.818 2.6-.941l2.682-.287v-.143c0-.396-.175-.68-.522-.85-.348-.17-.85-.255-1.505-.255-.52 0-1.023.054-1.515.163-.492.109-.935.246-1.33.41-.179-.123-.329-.31-.451-.564a1.783 1.783 0 0 1-.184-.788c0-.355.085-.637.255-.85.171-.211.434-.392.789-.541a6.14 6.14 0 0 1 1.402-.329 12.224 12.224 0 0 1 1.526-.102M118.528 23.92c.627 0 1.116-.215 1.464-.645.348-.43.522-1.067.522-1.914 0-.86-.178-1.501-.533-1.925-.355-.422-.832-.634-1.433-.634-.273 0-.509.028-.706.082a3.966 3.966 0 0 0-.645.246v4.462c.15.096.33.175.543.236.211.062.474.092.788.092zm-4.79-10.912c.136-.04.353-.085.654-.133.3-.047.607-.072.92-.072.301 0 .571.021.81.063.238.04.44.121.604.245.163.123.286.29.368.501.082.212.123.488.123.83v2.005c.34-.135.666-.23.973-.286a5.791 5.791 0 0 1 1.013-.082 5.03 5.03 0 0 1 1.863.348c.587.232 1.105.57 1.556 1.014.45.444.805.992 1.065 1.648.259.655.388 1.412.388 2.272 0 .887-.133 1.662-.4 2.324a4.426 4.426 0 0 1-1.114 1.648c-.478.437-1.062.767-1.751.994-.69.224-1.45.337-2.282.337-.902 0-1.666-.106-2.293-.318-.629-.211-1.16-.474-1.598-.788-.6-.423-.9-.969-.9-1.638V13.008zM129.869 24.125c.232 0 .488-.024.768-.072.28-.048.488-.113.624-.194V22.22l-1.473.122c-.383.028-.696.11-.943.247a.662.662 0 0 0-.368.614c0 .273.106.495.317.665.212.17.57.256 1.075.256m-.163-8.046c.736 0 1.408.075 2.016.226.607.15 1.126.378 1.556.686.43.307.76.695.993 1.166.232.47.347 1.027.347 1.669v4.585c0 .355-.098.646-.296.87a2.95 2.95 0 0 1-.706.584c-.888.532-2.136.799-3.747.799-.723 0-1.375-.07-1.955-.205-.58-.136-1.078-.341-1.494-.615a2.821 2.821 0 0 1-.963-1.044c-.225-.422-.338-.914-.338-1.474 0-.941.28-1.664.84-2.17.56-.504 1.426-.818 2.6-.941l2.682-.287v-.143c0-.396-.174-.68-.522-.85-.348-.17-.85-.255-1.505-.255a6.97 6.97 0 0 0-1.515.163c-.49.109-.935.246-1.33.41-.179-.123-.328-.31-.451-.564a1.783 1.783 0 0 1-.184-.788c0-.355.085-.637.255-.85.171-.211.434-.392.789-.541a6.14 6.14 0 0 1 1.402-.329 12.224 12.224 0 0 1 1.526-.102M136.563 13.623c0-.52.174-.956.522-1.31.348-.356.808-.533 1.382-.533.574 0 1.033.177 1.382.532a1.8 1.8 0 0 1 .522 1.31 1.8 1.8 0 0 1-.522 1.311c-.349.355-.808.532-1.382.532-.574 0-1.034-.177-1.382-.532a1.797 1.797 0 0 1-.522-1.31zm-.696 14.105c.3-.192.518-.454.655-.788a2.93 2.93 0 0 0 .205-1.116V16.53c.15-.028.372-.065.666-.113a5.543 5.543 0 0 1 1.698-.01c.24.04.44.123.605.246.164.122.29.29.378.501.09.212.133.489.133.829v8.169c0 .572-.068 1.091-.205 1.556a3.703 3.703 0 0 1-.583 1.198c-.252.334-.56.593-.921.777a2.648 2.648 0 0 1-1.219.276c-.6 0-1.071-.18-1.412-.542-.34-.362-.518-.816-.532-1.361l.532-.328zM146.472 24.125c.232 0 .488-.024.768-.072.28-.048.487-.113.624-.194V22.22l-1.473.122c-.383.028-.697.11-.942.247a.661.661 0 0 0-.37.614c0 .273.106.495.318.665.212.17.57.256 1.075.256m-.163-8.046c.736 0 1.408.075 2.016.226.607.15 1.126.378 1.555.686.43.307.761.695.994 1.166.232.47.347 1.027.347 1.669v4.585c0 .355-.098.646-.296.87a2.95 2.95 0 0 1-.706.584c-.888.532-2.136.799-3.747.799a8.59 8.59 0 0 1-1.955-.205c-.58-.136-1.079-.341-1.495-.615a2.827 2.827 0 0 1-.962-1.044c-.225-.422-.338-.914-.338-1.474 0-.941.28-1.664.84-2.17.56-.504 1.426-.818 2.6-.941l2.682-.287v-.143c0-.396-.174-.68-.522-.85-.348-.17-.85-.255-1.505-.255-.519 0-1.024.054-1.516.163-.49.109-.934.246-1.33.41-.178-.123-.328-.31-.45-.564a1.783 1.783 0 0 1-.184-.788c0-.355.085-.637.256-.85.17-.211.432-.392.788-.541a6.14 6.14 0 0 1 1.403-.329 12.216 12.216 0 0 1 1.525-.102M161.539 23.368c0 1.036-.388 1.85-1.166 2.436-.779.586-1.925.88-3.44.88-.573 0-1.105-.041-1.597-.123a4.564 4.564 0 0 1-1.259-.379 2.24 2.24 0 0 1-.818-.644 1.475 1.475 0 0 1-.298-.922c0-.328.068-.604.205-.83.136-.224.3-.411.491-.562.396.218.85.413 1.362.584.512.17 1.102.255 1.77.255.423 0 .747-.061.973-.184.225-.122.338-.287.338-.491a.513.513 0 0 0-.246-.45c-.164-.11-.437-.198-.82-.267l-.613-.122c-1.188-.232-2.072-.597-2.651-1.095-.58-.499-.87-1.212-.87-2.14 0-.505.109-.963.327-1.371.218-.41.526-.752.921-1.024.397-.274.871-.484 1.424-.635a6.992 6.992 0 0 1 1.832-.225c.504 0 .979.038 1.423.112.443.075.829.188 1.156.339.328.15.587.344.778.583.191.238.287.522.287.85 0 .313-.058.583-.174.807a1.828 1.828 0 0 1-.44.564 2.48 2.48 0 0 0-.492-.215 7.792 7.792 0 0 0-.716-.205 10.048 10.048 0 0 0-.789-.153 4.851 4.851 0 0 0-.726-.061c-.45 0-.798.05-1.045.152-.245.103-.368.263-.368.482 0 .15.069.273.205.369.136.095.396.184.778.265l.634.144c1.31.3 2.242.713 2.795 1.239.553.525.829 1.204.829 2.037M162.188 25.456c0-.305.094-.558.282-.761.189-.202.446-.304.772-.304s.583.102.77.304c.19.203.284.456.284.76 0 .305-.094.559-.283.762-.188.202-.445.304-.771.304s-.583-.102-.772-.304a1.078 1.078 0 0 1-.282-.761M168.15 22.348c-.18 0-.353.029-.516.087a1.195 1.195 0 0 0-.424.256 1.262 1.262 0 0 0-.288.417 1.47 1.47 0 0 0-.108.587c0 .45.129.786.386 1.01.257.225.57.338.94.338.217 0 .405-.026.564-.077.16-.05.301-.104.424-.162.145.101.254.212.326.331.072.12.11.262.11.43 0 .297-.143.527-.425.69-.283.162-.674.244-1.174.244-.455 0-.868-.067-1.238-.2a2.805 2.805 0 0 1-.951-.566 2.501 2.501 0 0 1-.614-.875 2.86 2.86 0 0 1-.217-1.13c0-.478.077-.897.234-1.255.156-.359.367-.654.635-.886.268-.231.578-.406.93-.521a3.543 3.543 0 0 1 1.113-.174c.521 0 .924.095 1.206.282.283.19.424.432.424.728a.794.794 0 0 1-.098.386c-.065.12-.141.223-.228.31a3.526 3.526 0 0 0-.445-.169 1.879 1.879 0 0 0-.566-.08M171.878 23.695c0 .442.084.781.255 1.016a.83.83 0 0 0 .711.354c.304 0 .538-.12.701-.36.163-.238.244-.575.244-1.01 0-.434-.083-.77-.249-1.004a.816.816 0 0 0-.706-.354.817.817 0 0 0-.707.354c-.166.235-.25.57-.25 1.004m3.804 0c0 .45-.07.85-.207 1.201a2.442 2.442 0 0 1-.58.886c-.251.238-.55.42-.898.543a3.459 3.459 0 0 1-1.162.185c-.428 0-.816-.065-1.163-.196a2.476 2.476 0 0 1-1.478-1.445 3.144 3.144 0 0 1-.206-1.174c0-.427.068-.814.207-1.162.137-.348.33-.643.581-.886.25-.242.548-.43.896-.56.347-.13.735-.195 1.163-.195.428 0 .814.067 1.162.201.348.135.647.322.897.565.25.243.443.538.581.885.138.348.207.732.207 1.152M179.006 20.892c.297 0 .588.042.875.125.285.083.534.208.744.375a3.25 3.25 0 0 1 .733-.359c.272-.094.6-.141.984-.141.275 0 .544.037.81.109.264.073.5.186.706.342.206.155.37.362.494.619.123.257.184.571.184.94v3.423a3.522 3.522 0 0 1-.825.098c-.16 0-.302-.011-.43-.033a.729.729 0 0 1-.32-.13.628.628 0 0 1-.201-.266 1.16 1.16 0 0 1-.07-.44v-2.597c0-.217-.062-.376-.186-.473-.123-.098-.289-.148-.5-.148a.88.88 0 0 0-.326.072.945.945 0 0 0-.26.147.348.348 0 0 1 .01.081v3.689c-.079.022-.196.043-.353.065a3.42 3.42 0 0 1-.472.033 2.56 2.56 0 0 1-.43-.033.728.728 0 0 1-.32-.13.627.627 0 0 1-.2-.266 1.144 1.144 0 0 1-.072-.44v-2.597c0-.217-.067-.376-.2-.473a.797.797 0 0 0-.484-.148.872.872 0 0 0-.337.06c-.094.04-.174.079-.24.115v3.814a3.497 3.497 0 0 1-.825.098c-.159 0-.302-.011-.43-.033a.735.735 0 0 1-.32-.13.621.621 0 0 1-.2-.266 1.158 1.158 0 0 1-.071-.44v-3.282c0-.196.042-.351.125-.467.083-.115.197-.225.342-.326.246-.174.553-.315.918-.424a4.014 4.014 0 0 1 1.147-.163"/>
        <path fill="#FF7B00" d="M34.534 33.585l.21-.252a15.883 15.883 0 0 0 .773-1.038 15.723 15.723 0 0 0 2.74-8.893v-7.336a15.752 15.752 0 0 0-1.057-5.684l-.06-.154a14.21 14.21 0 0 0-.198-.476l-.04-.087a15.466 15.466 0 0 0-1.2-2.21 18.23 18.23 0 0 0-.263-.393l-.11-.155a16.125 16.125 0 0 0-.288-.393c-.01-.015-.022-.028-.033-.042-.214-.281-.44-.554-.672-.819l-.1-.116c-.098-.109-.198-.214-.297-.32l-.175-.183a14.355 14.355 0 0 0-.494-.483c-.097-.091-.194-.183-.295-.272-.072-.065-.146-.128-.22-.192-.142-.12-.285-.24-.431-.357-.12-.096-.237-.19-.36-.283-.092-.07-.187-.137-.282-.205-.094-.068-.188-.136-.283-.202-.096-.065-.192-.128-.289-.192a14.748 14.748 0 0 0-.922-.56c-.09-.052-.18-.103-.27-.152a17.165 17.165 0 0 0-1.238-.595c-.085-.037-.17-.07-.255-.105a17.121 17.121 0 0 0-.681-.26c-.139-.05-.279-.097-.419-.142-.087-.028-.174-.057-.262-.083-.164-.05-.33-.096-.496-.141-.064-.018-.129-.037-.194-.053-.23-.06-.461-.113-.695-.16-.062-.014-.127-.024-.19-.036a14.353 14.353 0 0 0-1.535-.222 15.32 15.32 0 0 0-.507-.038c-.08-.005-.158-.011-.238-.015a15.493 15.493 0 0 0-.746-.019h-6.664-.002c-.25 0-.499.007-.746.02-.08.003-.158.009-.237.014-.17.01-.34.022-.508.038l-.269.028A17.573 17.573 0 0 0 12.77.56c-.063.012-.126.022-.19.035-.233.048-.465.102-.694.16L11.69.81c-.166.045-.331.092-.496.142-.088.026-.174.055-.262.083-.14.045-.28.092-.42.142-.09.032-.18.064-.27.099-.138.051-.274.106-.41.161-.085.035-.17.068-.254.104-.168.072-.333.148-.498.225-.087.04-.173.083-.259.125-.162.08-.323.162-.481.247-.091.048-.18.1-.27.15a16.073 16.073 0 0 0-.62.367c-.103.064-.204.13-.304.195-.096.063-.192.126-.287.191-.096.066-.191.135-.286.203-.093.068-.188.134-.281.204a19.332 19.332 0 0 0-.79.64c-.073.064-.148.127-.22.192a15.376 15.376 0 0 0-.497.463c-.098.096-.195.194-.292.292a21.732 21.732 0 0 0-.472.504l-.098.114c-.234.266-.459.539-.674.82-.011.014-.023.027-.033.042-.098.129-.193.26-.287.393a16.706 16.706 0 0 0-.375.548l-.104.163c-.087.137-.172.275-.256.415l-.066.117c-.284.49-.543.995-.774 1.516l-.039.085c-.069.157-.134.317-.197.477l-.061.154a13.816 13.816 0 0 0-.225.623A15.757 15.757 0 0 0 0 16.065v7.337a15.793 15.793 0 0 0 .93 5.348l.102.27a13.492 13.492 0 0 0 .272.67c.056.129.114.256.174.383a12.475 12.475 0 0 0 .351.707l.09.174c.108.197.22.393.336.584.046.076.094.149.14.224.077.123.155.246.236.368a18.156 18.156 0 0 0 .576.81c.092.123.188.243.284.363.05.061.097.123.147.183.143.173.291.344.442.51.047.053.097.103.146.156.11.118.22.235.333.35l.194.19a15.732 15.732 0 0 0 .86.782c.062.052.124.107.187.159.177.144.354.285.537.421l.082.059c.16.118.322.234.487.346.068.047.137.091.205.137a17.187 17.187 0 0 0 .615.386c.13.078.263.153.397.228.073.04.145.082.219.122.164.088.33.172.498.254l.128.065c.21.1.423.197.637.288.064.028.13.052.194.079l.054.021c.009.005.018.008.028.012.128.051.256.102.386.151a16.709 16.709 0 0 0 1.37.44c.043.013.086.025.13.036.041.012.083.024.124.034a13.702 13.702 0 0 0 .475.11c.074.018.15.036.225.052l.099.019c.096.019.194.036.29.054.087.015.173.032.26.046l.073.01c.067.011.135.021.203.03.086.014.173.026.26.037.071.01.144.017.216.025l.097.012.125.014.161.014a22.031 22.031 0 0 0 .53.038l.146.008.146.007c.2.007.4.012.601.012h6.662c.202 0 .403-.005.604-.013.049-.001.096-.004.145-.006l.13-.007a11.465 11.465 0 0 0 .52-.036l.176-.016.122-.014.274-.03.018-.002c.113-.015.226-.031.338-.048l.112-.016.146-.023.139-.025c.13-.023.259-.047.387-.072l.124-.025.092-.02c.205-.044.408-.09.61-.142l.055-.015c.168-.044.334-.09.5-.139.027-.008.053-.017.08-.024l.032-.011.158-.048c.105-.033.209-.067.312-.103l.09-.031.216-.075.149-.056c.177-.066.353-.136.528-.208l.126-.052.121-.053.014-.006a17.051 17.051 0 0 0 .623-.288c.188-.093.375-.188.559-.288l.125-.07c.154-.084.306-.172.457-.262.06-.036.119-.07.178-.107.084-.052.168-.106.252-.16l.025-.016c.076-.049.153-.097.228-.147l.18-.124c.132-.09.262-.184.391-.278.053-.039.107-.077.16-.117.154-.116.305-.236.455-.358.064-.052.128-.104.19-.157.145-.12.287-.243.426-.369a13.958 13.958 0 0 0 .486-.46c.061-.058.122-.117.182-.177.131-.133.26-.268.387-.406a16.789 16.789 0 0 0 .452-.515"/>
        <path fill="#FF7B00" fill-opacity=".5" d="M29.066 13.682a1.79 1.79 0 0 0-.068-.095l-.283-.395.014.101-.657-.655c-.706-.703-1.81-.74-2.467-.08l-.12.12-.816-.162v.726a9 9 0 0 0-2.83-1.267 9.246 9.246 0 0 0-1.17-.207v-.014h1.408v-1.572c0-.867-.703-1.569-1.568-1.569h-1.883c-.866 0-1.57.702-1.57 1.569v1.572h1.364v1.217a9.06 9.06 0 0 0-1.422.291c-.374.002-.76.153-1.146.42a9.014 9.014 0 0 0-.953.49 9.122 9.122 0 0 0-4.275 6.181c-.024.127-.069.363-.063.81.003.286.117.553.322.751.153.15.338.245.544.285l.432 1.725a.662.662 0 0 0-.46.532l-.347 3.443a.674.674 0 0 0 .284.658l.003.001a.667.667 0 0 0 .717.018l.825-.491c.299.325.618.62.953.892L21.233 39.2h1.226c7.477 0 13.737-5.195 15.376-12.172h.006c.037-.139.175-.865.175-.865l-8.95-12.481z" style="mix-blend-mode:multiply"/>
        <path fill="#FF8318" d="M10.653 16.363a10.255 10.255 0 0 1 3.228-3.217l.058-.059-.528-.529c-.658-.66-1.762-.623-2.468.08l-.767.764c-.705.704-.745 1.809-.087 2.468l.527.53.037-.037z" style="mix-blend-mode:multiply"/>
        <path fill="#FFF" d="M21.223 12.533a9.26 9.26 0 0 0-1.17-.208V11.11h1.493v-.869a1.73 1.73 0 0 0-1.731-1.731h-1.557a1.73 1.73 0 0 0-1.731 1.731v.869h1.363v1.217a8.992 8.992 0 0 0-3.521 1.201 9.118 9.118 0 0 0-4.276 6.181c-.024.127-.068.364-.063.81.004.285.118.552.322.751.206.2.468.305.762.305.496-.007.93-.363 1.032-.85a7.47 7.47 0 0 0 .035-.266c.029-.238.09-.734.117-.84.107-.42.254-.833.438-1.23a6.895 6.895 0 0 1 2.727-3.025c2.164-1.29 4.84-1.32 7.164.033.313.182.608.396.878.637 2.053 1.831 2.83 4.464 2.197 6.967a6.87 6.87 0 0 1-3.16 4.243c-2.645 1.576-6.079 1.175-8.298-.93l.71-.422a.668.668 0 0 0 .323-.64.663.663 0 0 0-.444-.568l-3.08-1.398a.663.663 0 0 0-.564.057.663.663 0 0 0-.32.468l-.348 3.444a.674.674 0 0 0 .285.658l.002.001a.666.666 0 0 0 .717.018l.825-.491a9.044 9.044 0 0 0 11.286 1.64 8.987 8.987 0 0 0 4.136-5.555 8.99 8.99 0 0 0-.994-6.854 8.992 8.992 0 0 0-5.555-4.138M10.246 15.791a10.269 10.269 0 0 1 3.228-3.217l.058-.058-.528-.53c-.657-.659-1.762-.623-2.467.08l-.767.765c-.706.703-.745 1.808-.088 2.467l.527.53.037-.037zM28.432 12.83l-.767-.764c-.706-.703-1.81-.739-2.468-.08l-.527.53.058.058c1.284.806 2.4 1.902 3.227 3.217l.037.036.528-.529c.657-.66.618-1.764-.088-2.467"/>
        <path fill="#FFF" d="M19.449 23.322c-.21.079-.762.188-1.389-.519a.633.633 0 0 0-.474-.21.637.637 0 0 0-.4.139.563.563 0 0 0-.215.394.548.548 0 0 0 .14.415c.38.43.832.736 1.307.888l.09.029v.916c0 .32.277.579.617.579.34 0 .617-.26.617-.579v-.92l.086-.03c.848-.293 1.405-1.046 1.405-1.879 0-1.1-.945-1.993-2.108-1.993-.482 0-.875-.375-.875-.836 0-.326.199-.624.507-.76.388-.17.849-.052 1.261.327.246.226.64.22.877-.013a.556.556 0 0 0-.013-.813 2.804 2.804 0 0 0-1.05-.623l-.09-.029v-.918c0-.319-.278-.579-.617-.579-.34 0-.617.26-.617.579v.92l-.088.03c-.839.284-1.404 1.038-1.404 1.879 0 1.099.946 1.993 2.109 1.993.482 0 .875.374.875.836 0 .34-.221.653-.551.777"/>
    </g>
</svg>
