<?xml version="1.0" encoding="UTF-8"?>
<svg width="200px" height="47px" viewBox="0 0 200 47" version="1.1" xmlns="http://www.w3.org/2000/svg" xmlns:xlink="http://www.w3.org/1999/xlink">
    <!-- Generator: Sketch 55.2 (78181) - https://sketchapp.com -->
    <title>logo-hoytrabajas-c</title>
    <desc>Created with Sketch.</desc>
    <g id="Perfil-candidato" stroke="none" stroke-width="1" fill="none" fill-rule="evenodd">
        <g id="logo-hoytrabajas-c" transform="translate(-0.000181, 0.092387)">
            <path d="M42.1301205,40.0884048 C42.2162651,39.9879966 42.3018072,39.8864002 42.3855422,39.7842096 C42.5042169,39.6404299 42.6198795,39.4942736 42.7337349,39.3469291 C42.8024096,39.2589977 42.8704819,39.169878 42.936747,39.0801642 C43.0704819,38.9007366 43.2018072,38.7201208 43.3289157,38.5365342 C45.4385542,35.4880473 46.673494,31.8044342 46.673494,27.8350441 L46.673494,19.0086318 C46.673494,16.8786717 46.3126506,14.832484 45.6572289,12.92057 C45.6373494,12.861751 45.6174699,12.8023379 45.596988,12.7435189 C45.5289157,12.5510204 45.4572289,12.3603043 45.3831325,12.1701823 C45.3584337,12.1083927 45.3337349,12.0466031 45.3090361,11.9848134 C45.2313253,11.7923149 45.1518072,11.6010047 45.0680723,11.4114769 C45.0524096,11.3764231 45.0361446,11.3419635 45.0204819,11.3075039 C44.7385542,10.6812897 44.423494,10.0734935 44.0771084,9.48530371 C44.05,9.43836735 44.0228916,9.39024272 43.9945783,9.34330636 C43.8939759,9.17516725 43.789759,9.00940466 43.6837349,8.84483033 C43.6409639,8.77888178 43.5987952,8.71352735 43.5554217,8.64817293 C43.4506024,8.48894578 43.3439759,8.33150103 43.2343373,8.17583867 C43.189759,8.11286077 43.1445783,8.05107113 43.0987952,7.98868736 C42.9843373,7.82946021 42.8692771,7.67082719 42.7493976,7.5163531 C42.7361446,7.49912329 42.7222892,7.48248762 42.7090361,7.46525782 C42.446988,7.1271972 42.1722892,6.79983094 41.8885542,6.48018838 C41.846988,6.43384615 41.8072289,6.38631566 41.7662651,6.34056756 C41.6475904,6.21045284 41.526506,6.08330878 41.4042169,5.95616471 C41.3337349,5.88249245 41.263253,5.80822606 41.1909639,5.73574206 C41.073494,5.61691583 40.9542169,5.50046613 40.8343373,5.38461055 C40.753012,5.30677937 40.6710843,5.23073059 40.5891566,5.15408767 C40.4698795,5.04417341 40.3506024,4.93425915 40.2289157,4.82672141 C40.1403614,4.74889023 40.0493976,4.67343558 39.9596386,4.59679266 C39.786747,4.4506364 39.6120482,4.30626253 39.4343373,4.16604758 C39.289759,4.05138027 39.1445783,3.93671296 38.9963855,3.82620456 C38.8831325,3.74183794 38.7668675,3.66163024 38.6512048,3.57964014 C38.5361446,3.49824417 38.4216867,3.41565994 38.3048193,3.3366405 C38.1891566,3.25821519 38.0716867,3.18157227 37.9536145,3.10552349 C37.8319277,3.02709818 37.7096386,2.949267 37.5855422,2.87262408 C37.4698795,2.80192247 37.3536145,2.73122087 37.2361446,2.66230165 C37.1012048,2.58328221 36.9644578,2.50663929 36.8277108,2.43059051 C36.7180723,2.36998913 36.6090361,2.30819949 36.4981928,2.24938051 C36.3054217,2.14718995 36.1096386,2.04975245 35.9126506,1.9535032 C35.8066265,1.90240792 35.7006024,1.85190677 35.5933735,1.80199976 C35.3927711,1.70872117 35.1915663,1.6178191 34.9879518,1.53167009 C34.8855422,1.48829851 34.7807229,1.4478976 34.6771084,1.40630842 C34.5120482,1.33976573 34.3457831,1.2744113 34.1777108,1.21202753 C34.0680723,1.17162662 33.9578313,1.13181983 33.846988,1.0932013 C33.6777108,1.03378819 33.5072289,0.977345731 33.3355422,0.922685666 C33.2295181,0.88822606 33.1228916,0.854360584 33.0156627,0.822277503 C32.8156627,0.762270257 32.6138554,0.70642193 32.4114458,0.652355996 C32.3319277,0.631561406 32.2536145,0.608390291 32.1740964,0.588783963 C31.8939759,0.518082357 31.6114458,0.453916194 31.326506,0.395691342 C31.25,0.380243932 31.1722892,0.367767178 31.0951807,0.352913899 C30.8813253,0.31191885 30.6668675,0.273300326 30.4506024,0.239434851 C30.3451807,0.222799179 30.239759,0.208540031 30.1343373,0.193686753 C29.9403614,0.16635672 29.7451807,0.141997343 29.5493976,0.120608622 C29.4409639,0.108131868 29.3313253,0.0968433764 29.2216867,0.086743147 C29.0162651,0.0677309504 28.810241,0.0528776718 28.6024096,0.0404009178 C28.5060241,0.0344596063 28.410241,0.0267359015 28.3126506,0.0225769835 C28.0114458,0.00891196715 27.7084337,3.44613227e-13 27.4036145,3.44613227e-13 L27.4,3.44613227e-13 L19.273494,3.44613227e-13 L19.2698795,3.44613227e-13 C18.9650602,3.44613227e-13 18.6620482,0.00891196715 18.3608434,0.0225769835 C18.2638554,0.0267359015 18.1674699,0.0344596063 18.0710843,0.0404009178 C17.8638554,0.0528776718 17.6566265,0.0677309504 17.4518072,0.086743147 C17.3421687,0.0968433764 17.2331325,0.108131868 17.1240964,0.120608622 C16.9283133,0.141997343 16.7331325,0.16635672 16.5385542,0.193686753 C16.4331325,0.208540031 16.3277108,0.222799179 16.223494,0.239434851 C16.0066265,0.273300326 15.7915663,0.31191885 15.5771084,0.352913899 C15.5006024,0.367767178 15.4228916,0.380243932 15.346988,0.395691342 C15.0620482,0.453916194 14.7795181,0.518082357 14.4987952,0.588783963 C14.4198795,0.608390291 14.3421687,0.631561406 14.263253,0.652355996 C14.060241,0.70642193 13.8578313,0.762270257 13.6572289,0.822277503 C13.5506024,0.854360584 13.4445783,0.88822606 13.3385542,0.922685666 C13.1662651,0.977345731 12.9957831,1.03438232 12.8259036,1.0932013 C12.7156627,1.13241396 12.6054217,1.17162662 12.4963855,1.21202753 C12.3277108,1.2744113 12.1614458,1.33976573 11.9957831,1.40690255 C11.8921687,1.4478976 11.7885542,1.48829851 11.6861446,1.53167009 C11.4813253,1.61841324 11.2795181,1.7093153 11.0789157,1.80259389 C10.9728916,1.85190677 10.8674699,1.90181379 10.7626506,1.95231494 C10.5650602,2.04915831 10.3686747,2.14718995 10.1746988,2.24938051 C10.0644578,2.30819949 9.9560241,2.369395 9.84698795,2.42999638 C9.70963855,2.50663929 9.57228916,2.58328221 9.43674699,2.66289579 C9.31987952,2.73122087 9.20421687,2.80132834 9.08855422,2.87262408 C8.96445783,2.94867287 8.84156627,3.02709818 8.71927711,3.10611762 C8.60180723,3.18216641 8.48433735,3.25821519 8.36927711,3.3366405 C8.25180723,3.41565994 8.13614458,3.4988383 8.02048193,3.5808284 C7.9060241,3.66222437 7.79036145,3.74243207 7.67771084,3.82620456 C7.52228916,3.94146601 7.37048193,4.0614805 7.21927711,4.18090086 C7.04819277,4.31636276 6.88012048,4.45538945 6.71385542,4.59679266 C6.62409639,4.67284144 6.53313253,4.74889023 6.44457831,4.82672141 C6.32289157,4.93425915 6.20361446,5.04417341 6.08493976,5.15408767 C6.00240964,5.23073059 5.92048193,5.30737351 5.83915663,5.38520469 C5.71927711,5.50046613 5.6,5.61691583 5.48313253,5.73514793 C5.41084337,5.80822606 5.34036145,5.88249245 5.26927711,5.95616471 C5.14698795,6.08330878 5.02590361,6.21045284 4.90722892,6.3411617 C4.86626506,6.38631566 4.82710843,6.43325202 4.78614458,6.47900012 C4.50180723,6.79864268 4.22771084,7.12660307 3.96445783,7.46525782 C3.95180723,7.48248762 3.9373494,7.49852916 3.92409639,7.5163531 C3.80421687,7.67142133 3.68915663,7.83005434 3.5746988,7.98868736 C3.52951807,8.05107113 3.48373494,8.11286077 3.43915663,8.17583867 C3.32951807,8.33150103 3.22289157,8.48894578 3.11746988,8.64876706 C3.0746988,8.71352735 3.03253012,8.77888178 2.99036145,8.8442362 C2.88433735,9.00940466 2.77951807,9.17516725 2.67831325,9.3439005 C2.65060241,9.39024272 2.62409639,9.43777322 2.59638554,9.48411544 C2.25,10.0728994 1.93433735,10.6818838 1.65240964,11.3092863 C1.6373494,11.3431518 1.62108434,11.3770173 1.60542169,11.4108827 C1.52168675,11.6010047 1.44216867,11.7929091 1.36445783,11.9854076 C1.33975904,12.0471972 1.31506024,12.1083927 1.29096386,12.1701823 C1.21626506,12.3603043 1.14457831,12.5510204 1.07650602,12.7435189 C1.0560241,12.8023379 1.03614458,12.8611569 1.01626506,12.9199758 C0.360843373,14.8318899 -5.32907052e-14,16.8780775 -5.32907052e-14,19.0086318 L-5.32907052e-14,27.8350441 C-5.32907052e-14,29.8752904 0.329518072,31.8388939 0.93253012,33.6807004 C0.997590361,33.8785461 1.06385542,34.0752035 1.13493976,34.2700785 C1.1746988,34.3788045 1.21686747,34.4857481 1.25843373,34.59388 C1.31987952,34.7531071 1.38253012,34.911146 1.44819277,35.0679966 C1.49457831,35.1796933 1.54216867,35.2902017 1.59096386,35.4007101 C1.65963855,35.5557783 1.73072289,35.7096583 1.80240964,35.86235 C1.85180723,35.9663229 1.9,36.07089 1.95120482,36.1742688 C2.04156627,36.3554788 2.13554217,36.5355005 2.23192771,36.7137399 C2.26927711,36.7832532 2.30421687,36.8539548 2.34216867,36.922874 C2.47349398,37.1605265 2.61024096,37.39402 2.75180723,37.6257312 C2.80722892,37.7160391 2.86506024,37.8045647 2.92168675,37.8936843 C3.01626506,38.0428113 3.11144578,38.191344 3.20963855,38.3369062 C3.2753012,38.4343437 3.34216867,38.5299988 3.40903614,38.626248 C3.5060241,38.7640865 3.60481928,38.9007366 3.70542169,39.0367927 C3.77349398,39.128883 3.84156627,39.2215674 3.91204819,39.3118754 C4.0253012,39.4592199 4.14156627,39.6041879 4.25903614,39.7485618 C4.31927711,39.8216399 4.37771084,39.8965004 4.43855422,39.9689844 C4.61385542,40.1769303 4.79277108,40.3819056 4.97710843,40.5821278 C5.03554217,40.6456998 5.09578313,40.7068953 5.15542169,40.7692791 C5.28915663,40.9118705 5.42409639,41.0526796 5.56204819,41.1905181 C5.63975904,41.2683492 5.71927711,41.344398 5.79819277,41.4204468 C5.92409639,41.5416496 6.05120482,41.6616641 6.18012048,41.779302 C6.2626506,41.8553508 6.34578313,41.9302113 6.42951807,42.0044777 C6.56686747,42.1250863 6.70662651,42.2433184 6.84698795,42.3609564 C6.92349398,42.4245284 6.99879518,42.4892887 7.07650602,42.5516725 C7.29096386,42.7245647 7.50843373,42.8950803 7.73072289,43.0590605 C7.76385542,43.0834199 7.79819277,43.1059969 7.8313253,43.1303562 C8.02650602,43.2723536 8.22409639,43.4113803 8.4253012,43.5468422 C8.50783133,43.6026905 8.59216867,43.6555682 8.67590361,43.7102282 C8.83192771,43.8118247 8.98855422,43.9116387 9.14759036,44.0084821 C9.23975904,44.0643304 9.33253012,44.1201787 9.42590361,44.1748388 C9.58554217,44.2687115 9.74698795,44.3596136 9.90903614,44.4487332 C9.99819277,44.4980461 10.0873494,44.5479531 10.1771084,44.5954836 C10.3777108,44.701239 10.5801205,44.8034295 10.7849398,44.9026494 C10.836747,44.9276029 10.8879518,44.954933 10.9409639,44.9798865 C11.196988,45.1010892 11.4566265,45.2163507 11.7186747,45.3262649 C11.7963855,45.3595363 11.8759036,45.3892428 11.9548193,45.4213259 C11.976506,45.4302379 11.9981928,45.4391499 12.0204819,45.4480618 C12.0313253,45.4522207 12.0427711,45.4569738 12.0542169,45.4611327 C12.210241,45.5235165 12.3674699,45.584712 12.5259036,45.643531 C12.623494,45.679773 12.7216867,45.7142326 12.8204819,45.7486922 C13.0006024,45.8116701 13.1819277,45.8716773 13.3644578,45.9299022 C13.463253,45.9613911 13.5626506,45.9928801 13.6620482,46.0231808 C13.8391566,46.0760584 14.0174699,46.1253713 14.1957831,46.173496 C14.2493976,46.1877551 14.3018072,46.2032025 14.3548193,46.2168675 C14.4054217,46.2299384 14.4560241,46.2441976 14.5066265,46.2566743 C14.6054217,46.2816278 14.7048193,46.3036107 14.8042169,46.3267818 C14.8975904,46.3487646 14.9915663,46.3695592 15.0855422,46.3903538 C15.1777108,46.4105543 15.2686747,46.4325371 15.3608434,46.4509552 C15.4006024,46.459273 15.4409639,46.4658085 15.4813253,46.4741263 C15.5987952,46.4972974 15.7168675,46.5174979 15.8355422,46.5388866 C15.9409639,46.5573047 16.0457831,46.5775051 16.1518072,46.5947349 C16.1813253,46.599488 16.2114458,46.6030528 16.2409639,46.6078058 C16.3228916,46.6208767 16.4054217,46.6321652 16.4885542,46.6440478 C16.5939759,46.6589011 16.7,46.6749426 16.8060241,46.6880135 C16.8933735,46.699302 16.9813253,46.708214 17.0692771,46.7183142 C17.1084337,46.7224731 17.1481928,46.7272262 17.1879518,46.7313851 C17.2391566,46.7367323 17.289759,46.7438619 17.3409639,46.7486149 C17.4060241,46.7551503 17.4716867,46.7599034 17.536747,46.7658447 C17.6271084,46.7735684 17.7180723,46.780698 17.8084337,46.7872334 C17.9337349,46.7967395 18.0584337,46.8050574 18.1843373,46.8115928 C18.2433735,46.8151576 18.3024096,46.8187224 18.3614458,46.821693 C18.4210843,46.8240696 18.4807229,46.8270402 18.539759,46.8294167 C18.7837349,46.8383287 19.0277108,46.84427 19.273494,46.84427 L27.4,46.84427 C27.646988,46.84427 27.8927711,46.8377346 28.1373494,46.8288226 C28.1963855,46.8264461 28.2554217,46.8240696 28.3138554,46.8210989 C28.3668675,46.8187224 28.4192771,46.8163459 28.4722892,46.8133752 C28.613253,46.8056515 28.7536145,46.7961454 28.8945783,46.785451 C28.9650602,46.7801039 29.036747,46.7747567 29.1072289,46.7688154 C29.1789157,46.7622799 29.2512048,46.7563386 29.3222892,46.749209 C29.3722892,46.744456 29.4216867,46.7385147 29.4710843,46.7331675 C29.5825301,46.721879 29.6939759,46.7105905 29.8048193,46.6969255 L29.8271084,46.694549 C29.9650602,46.6773192 30.1024096,46.6571187 30.239759,46.6369182 C30.2849398,46.6303828 30.3307229,46.6244415 30.3759036,46.617906 C30.4349398,46.6089941 30.4945783,46.5988939 30.5536145,46.5893878 C30.610241,46.5798817 30.6668675,46.5697814 30.723494,46.5602753 C30.8819277,46.5329453 31.0391566,46.504427 31.1963855,46.4735322 C31.2463855,46.463432 31.296988,46.4539259 31.346988,46.4438256 C31.3849398,46.4361019 31.4222892,46.42719 31.4596386,46.4194662 C31.7090361,46.3665886 31.9566265,46.3107402 32.2024096,46.2489506 C32.2253012,46.2430093 32.2475904,46.2364739 32.2698795,46.2305325 C32.4746988,46.178249 32.6783133,46.1218065 32.8801205,46.0623934 C32.9126506,46.0534815 32.9445783,46.0427871 32.9771084,46.033281 C32.9903614,46.0297162 33.0042169,46.0255573 33.0174699,46.0213984 C33.0813253,46.0023862 33.1457831,45.9827799 33.2096386,45.9631735 C33.3373494,45.9233667 33.4644578,45.8817776 33.5909639,45.8395943 C33.6277108,45.8271175 33.6644578,45.8146407 33.7012048,45.802164 C33.7891566,45.7724574 33.876506,45.7427509 33.9638554,45.7112619 C34.0246988,45.6898732 34.0849398,45.6667021 34.1451807,45.6447192 C34.3620482,45.5645115 34.5771084,45.4813332 34.789759,45.3939959 C34.8409639,45.3726072 34.8933735,45.3530008 34.9445783,45.3316121 C34.9939759,45.3108175 35.0427711,45.2888347 35.0915663,45.267446 C35.0975904,45.2650694 35.1024096,45.2626929 35.1078313,45.2603164 C35.2903614,45.1818911 35.4716867,45.1004951 35.6512048,45.0161285 C35.7240964,44.982263 35.7957831,44.9478034 35.8674699,44.9127497 C36.0975904,44.8016471 36.3259036,44.687574 36.5506024,44.5681536 C36.6018072,44.5408236 36.6518072,44.5117111 36.7024096,44.483787 C36.8903614,44.3821906 37.0759036,44.2764352 37.260241,44.1683033 C37.3325301,44.1255259 37.4048193,44.0833426 37.476506,44.0393769 C37.5801205,43.9769931 37.6831325,43.9122328 37.7855422,43.8474725 C37.7951807,43.8409371 37.8048193,43.8349958 37.8144578,43.8284603 C37.9084337,43.7690472 38.0012048,43.7102282 38.0939759,43.6496269 C38.1674699,43.6009081 38.239759,43.5510011 38.313253,43.5016882 C38.4740964,43.3923681 38.6331325,43.2806714 38.7909639,43.1665982 C38.8548193,43.1196619 38.9204819,43.0739138 38.9849398,43.0263833 C39.1728916,42.8861683 39.3578313,42.7423886 39.5403614,42.5956382 C39.6186747,42.5332544 39.6963855,42.4696824 39.773494,42.4061104 C39.9487952,42.2611424 40.1222892,42.1137979 40.2921687,41.9628885 C40.3638554,41.8993165 40.4337349,41.8339621 40.5042169,41.7692018 C40.6331325,41.6509697 40.760241,41.5321435 40.8855422,41.4109407 C40.9596386,41.3390508 41.0337349,41.2683492 41.1060241,41.1958652 C41.2662651,41.036044 41.4240964,40.873252 41.5783133,40.7074894 C41.6518072,40.6290641 41.723494,40.5494505 41.7951807,40.469837 C41.9084337,40.3438812 42.0198795,40.2167371 42.1301205,40.0884048" id="Fill-1" fill="#FF8318"></path>
            <path d="M35.4595181,16.1401072 C35.433012,16.1020828 35.406506,16.0640584 35.376988,16.0266282 L35.0312048,15.5513233 C35.0312048,15.5513233 35.0378313,15.595289 35.0486747,15.672526 L34.2468675,14.8847081 C33.3860241,14.0380712 32.0384337,13.9952938 31.2366265,14.789053 L31.0914458,14.9322386 L30.0962651,14.7379577 L30.0962651,15.6113305 C29.0577108,14.9197619 27.8956627,14.4004912 26.6426506,14.0873841 C26.1691566,13.969152 25.6926506,13.8936974 25.2161446,13.8378491 L25.2161446,13.8206192 L26.933012,13.8206192 L26.933012,11.9289057 C26.933012,10.8867997 26.0763855,10.0419452 25.019759,10.0419452 L22.7227711,10.0419452 C21.6661446,10.0419452 20.8095181,10.8867997 20.8095181,11.9289057 L20.8095181,13.8206192 L22.4727711,13.8206192 L22.4727711,15.2851525 C21.8860241,15.3558541 21.3059036,15.4734921 20.7372289,15.636284 C20.2806024,15.6374723 19.8107229,15.8192764 19.3390361,16.1407014 C18.943253,16.3141877 18.5546988,16.5090627 18.176988,16.7312677 C15.6348193,18.2249134 13.7793976,20.7178877 13.0878313,23.5709054 C13.0426506,23.759245 13.0010843,23.949367 12.9607229,24.1680072 C12.9318072,24.3201048 12.876988,24.6040995 12.8842169,25.1423823 C12.8884337,25.485196 13.0275904,25.8066209 13.276988,26.0460558 C13.4637349,26.2254834 13.6896386,26.341339 13.9408434,26.3882753 L14.4679518,28.4641695 C14.4095181,28.4825876 14.3522892,28.5075411 14.2980723,28.5396242 C14.0866265,28.6632035 13.9438554,28.869367 13.9071084,29.1040488 L13.4824096,33.2463311 C13.4342169,33.5529028 13.5709639,33.8642275 13.8306024,34.0383079 L13.833012,34.0394962 C14.0980723,34.2141708 14.4324096,34.2230827 14.7077108,34.061479 L15.7143373,33.4703186 C16.0787952,33.8606627 16.4691566,34.2171414 16.8775904,34.5445077 L25.903494,46.8442106 L27.3998795,46.8442106 C36.5209639,46.8442106 44.1571084,40.5933568 46.1571084,32.1988779 C46.1583133,32.1982838 46.1643373,32.2006603 46.1643373,32.199472 C46.2107229,32.0319271 46.3787952,31.1585543 46.3787952,31.1585543 L35.4595181,16.1401072 Z" id="Fill-4" fill="#F67100"></path>
            <path d="M12.9971084,19.3662988 C14.006747,17.7835334 15.3675904,16.4657505 16.9344578,15.4949402 L17.0049398,15.4254269 L16.3615663,14.7885183 C15.5591566,13.9953532 14.2115663,14.0381307 13.3507229,14.8847675 L12.4151807,15.8044826 C11.5537349,16.6505253 11.5061446,17.9801908 12.3079518,18.7733559 L12.9519277,19.4102645 L12.9971084,19.3662988 Z" id="Fill-7" fill="#F15B00"></path>
            <path d="M25.8909639,14.7586335 C25.4174699,14.6404014 24.9409639,14.5649467 24.4638554,14.5085043 L24.4638554,13.0445651 L26.2861446,13.0445651 L26.2861446,11.9994885 C26.2861446,10.8492506 25.3403614,9.91646468 24.1740964,9.91646468 L22.2740964,9.91646468 C21.1078313,9.91646468 20.1620482,10.8492506 20.1620482,11.9994885 L20.1620482,13.0445651 L21.8253012,13.0445651 L21.8253012,14.5090984 C20.3253012,14.6903084 18.8650602,15.1697722 17.5295181,15.9552136 C14.9873494,17.4488593 13.1319277,19.9418336 12.4403614,22.7948513 C12.3951807,22.9831909 12.3542169,23.1733129 12.313253,23.3919531 C12.2843373,23.5440507 12.2295181,23.8280454 12.236747,24.3663282 C12.2409639,24.709736 12.3801205,25.0305668 12.6295181,25.2700017 C12.8801205,25.5106248 13.2,25.6377689 13.5584337,25.6359865 C14.1644578,25.6288569 14.6939759,25.1998942 14.8174699,24.614675 C14.8216867,24.5920981 14.8385542,24.464954 14.8596386,24.2938442 C14.8963855,24.007473 14.9716867,23.4109653 15.0036145,23.2832271 C15.1331325,22.7782157 15.313253,22.2803338 15.5379518,21.8038406 C16.2590361,20.2781118 17.4090361,19.0197421 18.8644578,18.1641932 C21.5042169,16.6117285 24.7680723,16.5760807 27.6048193,18.2034059 C27.9861446,18.4226403 28.3463855,18.679899 28.6759036,18.9692409 C31.1795181,21.1728733 32.1283133,24.3407806 31.3554217,27.3524313 C30.8012048,29.5091274 29.4325301,31.3218215 27.5006024,32.4572061 C24.2740964,34.3530786 20.0843373,33.8712383 17.3777108,31.3384572 L18.2427711,30.8298809 C18.5150602,30.6706538 18.6698795,30.3670528 18.6373494,30.059887 C18.6096386,29.7467799 18.3957831,29.4782326 18.0951807,29.3778244 L14.3391566,27.6958391 C14.1120482,27.6150373 13.8608434,27.6393967 13.6506024,27.7635701 C13.4391566,27.8871494 13.296988,28.0933129 13.260241,28.3279947 L12.8355422,32.470277 C12.786747,32.7768487 12.923494,33.0881734 13.1831325,33.2622538 L13.1855422,33.2634421 C13.4506024,33.4381167 13.7849398,33.4470286 14.060241,33.2854249 L15.0668675,32.6942645 C17.2138554,34.9923637 20.1813253,36.2020147 23.1885542,36.2020147 C25.123494,36.2020147 27.0759036,35.7011622 28.8355422,34.6667799 C31.3644578,33.1796696 33.1572289,30.8061157 33.8819277,27.9833986 C34.6066265,25.1606816 34.1753012,22.2322092 32.6680723,19.7374525 C31.160241,17.2415075 28.753012,15.4739674 25.8909639,14.7586335" id="Fill-9" fill="#FFFFFF"></path>
            <path d="M12.5006024,18.6781761 C13.510241,17.0954107 14.8710843,15.7776278 16.4385542,14.8068175 L16.5090361,14.7378983 L15.8650602,14.1003956 C15.063253,13.3072305 13.7156627,13.350008 12.8542169,14.1966448 L11.9186747,15.1163599 C11.0578313,15.9629967 11.0096386,17.2920681 11.8114458,18.0852332 L12.4554217,18.7221418 L12.5006024,18.6781761 Z" id="Fill-11" fill="#FFFFFF"></path>
            <path d="M34.686506,15.1165975 L33.7503614,14.1962884 C32.8901205,13.3502456 31.5419277,13.3074682 30.7401205,14.1006333 L30.0961446,14.7375418 L30.1666265,14.8070552 C31.7340964,15.7778655 33.0949398,17.0956484 34.1045783,18.6784137 L34.1491566,18.7223794 L34.7931325,18.0854708 C35.5949398,17.2923058 35.5473494,15.9626403 34.686506,15.1165975" id="Fill-13" fill="#FFFFFF"></path>
            <path d="M23.7272289,27.7404584 C23.4718072,27.8349253 22.7971084,27.9656341 22.0326506,27.1148383 L22.0326506,27.1154324 C21.8838554,26.9490757 21.6693976,26.8635208 21.4537349,26.8635208 C21.2814458,26.8635208 21.1085542,26.9181809 20.9663855,27.0292834 C20.8133735,27.1492979 20.72,27.3180312 20.7037349,27.5028059 C20.6880723,27.6852042 20.7489157,27.8634435 20.8754217,28.0036585 C21.3380723,28.5199585 21.8892771,28.889508 22.47,29.0719063 L22.5790361,29.1063659 L22.5790361,30.2090733 C22.5790361,30.5922879 22.9163855,30.9048009 23.3314458,30.9048009 C23.746506,30.9048009 24.0844578,30.5922879 24.0844578,30.2090733 L24.0844578,29.1016128 L24.1898795,29.0653708 C25.2242169,28.7130511 25.9037349,27.8075952 25.9037349,26.8047018 C25.9037349,25.4827601 24.7501205,24.4067886 23.3314458,24.4067886 C22.743494,24.4067886 22.2645783,23.955843 22.2645783,23.4009245 C22.2645783,23.0082038 22.5073494,22.6493486 22.8826506,22.4865567 C23.356747,22.2827697 23.9181928,22.4235788 24.4218072,22.8798715 C24.7206024,23.1513894 25.2007229,23.1454481 25.4916867,22.86383 C25.6296386,22.7313387 25.7037349,22.5566642 25.7007229,22.3730776 C25.6977108,22.1883029 25.6175904,22.0154107 25.4748193,21.8858901 C25.0856627,21.5329762 24.6549398,21.2804705 24.193494,21.1360966 L24.0844578,21.101637 L24.0844578,19.9965531 C24.0844578,19.6133385 23.746506,19.3008255 23.3314458,19.3008255 C22.9163855,19.3008255 22.5790361,19.6133385 22.5790361,19.9965531 L22.5790361,21.1052018 L22.4724096,21.1408497 C21.4483133,21.4812868 20.759759,22.3897133 20.759759,23.4009245 C20.759759,24.7228663 21.9133735,25.7988378 23.3314458,25.7988378 C23.92,25.7988378 24.3989157,26.2497834 24.3989157,26.8047018 C24.3989157,27.2140582 24.1290361,27.5901432 23.7272289,27.7404584" id="Fill-15" fill="#FFFFFF"></path>
            <g id="Group-47" transform="translate(59.707831, 14.810620)">
                <path d="M14.0361446,18.0567743 C13.8457831,18.1072754 13.5475904,18.1589649 13.1427711,18.2100601 C12.736747,18.2611554 12.3355422,18.2867031 11.9385542,18.2867031 C11.5409639,18.2867031 11.1915663,18.2564024 10.889759,18.1969893 C10.5873494,18.1375761 10.3331325,18.0312267 10.1259036,17.8779408 C9.9186747,17.724655 9.76325301,17.511956 9.65963855,17.239844 C9.5560241,16.9671378 9.50421687,16.6094708 9.50421687,16.1668431 L9.50421687,12.1825997 L4.53192771,12.1825997 L4.53192771,18.0567743 C4.34216867,18.1072754 4.04457831,18.1589649 3.63855422,18.2100601 C3.23253012,18.2611554 2.8313253,18.2867031 2.43493976,18.2867031 C2.0373494,18.2867031 1.6873494,18.2564024 1.38554217,18.1969893 C1.08373494,18.1375761 0.828915663,18.0312267 0.621686747,17.8779408 C0.414457831,17.724655 0.259036145,17.511956 0.155421687,17.239844 C0.0524096386,16.9671378 -2.16715534e-13,16.6094708 -2.16715534e-13,16.1668431 L-2.16715534e-13,2.68125444 C0.190361446,2.64738896 0.492168675,2.60104673 0.906626506,2.54103949 C1.32108434,2.48162637 1.71807229,2.45132569 2.09819277,2.45132569 C2.49457831,2.45132569 2.84457831,2.48162637 3.14638554,2.54103949 C3.44819277,2.60104673 3.70361446,2.70680208 3.91024096,2.86008791 C4.11807229,3.01396788 4.27289157,3.22666683 4.37650602,3.49937302 C4.48012048,3.77148509 4.53192771,4.12915203 4.53192771,4.57177974 L4.53192771,8.65821374 L9.50421687,8.65821374 L9.50421687,2.68125444 C9.6939759,2.64738896 9.99638554,2.60104673 10.410241,2.54103949 C10.8246988,2.48162637 11.2216867,2.45132569 11.6018072,2.45132569 C11.9987952,2.45132569 12.3481928,2.48162637 12.6506024,2.54103949 C12.9524096,2.60104673 13.2072289,2.70680208 13.4144578,2.86008791 C13.6216867,3.01396788 13.7771084,3.22666683 13.8807229,3.49937302 C13.9843373,3.77148509 14.0361446,4.12915203 14.0361446,4.57177974 L14.0361446,18.0567743 Z" id="Fill-17" fill="#FF8318"></path>
                <path d="M20.51,11.9527303 C20.51,12.9918657 20.7124096,13.7874073 21.1184337,14.3405434 C21.5238554,14.8942736 22.0895181,15.1711388 22.8148193,15.1711388 C23.5395181,15.1711388 24.096747,14.8895206 24.4846988,14.3280667 C24.873253,13.7660186 25.0672289,12.9740418 25.0672289,11.9527303 C25.0672289,10.9308248 24.8690361,10.1441951 24.4720482,9.59046492 C24.0744578,9.03673469 23.5136145,8.75986958 22.7889157,8.75986958 C22.0636145,8.75986958 21.5021687,9.03673469 21.1051807,9.59046492 C20.7081928,10.1441951 20.51,10.9308248 20.51,11.9527303 M29.573253,11.9527303 C29.573253,13.0085014 29.4093976,13.949011 29.0816867,14.7748533 C28.7533735,15.6006956 28.2913253,16.2946407 27.6961446,16.8560947 C27.1003614,17.4181427 26.3883133,17.8441348 25.5593976,18.1334766 C24.7310843,18.4228185 23.806988,18.5677865 22.7889157,18.5677865 C21.7696386,18.5677865 20.846747,18.4145007 20.0178313,18.1073349 C19.1895181,17.8013573 18.4768675,17.3628885 17.8816867,16.7925226 C17.2859036,16.2221567 16.8238554,15.5282116 16.4961446,14.7112812 C16.1678313,13.8937568 16.0039759,12.9740418 16.0039759,11.9527303 C16.0039759,10.9480546 16.1678313,10.0366574 16.4961446,9.21972709 C16.8238554,8.40220263 17.2859036,7.70885159 17.8816867,7.13848569 C18.4768675,6.56811979 19.1895181,6.12965101 20.0178313,5.82307934 C20.846747,5.51650767 21.7696386,5.36322183 22.7889157,5.36322183 C23.806988,5.36322183 24.7310843,5.52066659 25.5593976,5.83615022 C26.3883133,6.15103973 27.1003614,6.59366743 27.6961446,7.16403333 C28.2913253,7.73439923 28.7533735,8.4283444 29.0816867,9.24527473 C29.4093976,10.0627992 29.573253,10.9652844 29.573253,11.9527303" id="Fill-19" fill="#FF8318"></path>
                <path d="M32.836747,14.9918894 C32.6463855,14.5664915 32.4439759,14.0894042 32.2283133,13.5618157 C32.0120482,13.0342273 31.7879518,12.4294018 31.5548193,11.7485275 C31.3216867,11.0676532 31.0795181,10.2881531 30.8295181,9.41121555 C30.5789157,8.53487212 30.3156627,7.52603744 30.039759,6.38530564 C30.2813253,6.14646492 30.6054217,5.93792489 31.0114458,5.75909141 C31.4162651,5.58025794 31.8608434,5.49113827 32.3445783,5.49113827 C32.9487952,5.49113827 33.4493976,5.61471755 33.8463855,5.86128197 C34.2433735,6.10844053 34.536747,6.57245695 34.7271084,7.25333124 L36.7728916,14.2765555 L36.876506,14.2765555 C37.0837349,13.6978718 37.286747,13.0680927 37.4849398,12.3872185 C37.6831325,11.7063442 37.8777108,11.003487 38.0680723,10.2798353 C38.2578313,9.55677768 38.4343373,8.83253182 38.5981928,8.10888009 C38.7620482,7.38582249 38.9048193,6.67464751 39.0259036,5.97654341 C39.6475904,5.65274194 40.3295181,5.49113827 41.0716867,5.49113827 C41.6759036,5.49113827 42.1759036,5.61887646 42.5740964,5.87435286 C42.9710843,6.12923512 43.1692771,6.57245695 43.1692771,7.20223596 C43.1692771,7.66209347 43.1084337,8.19443497 42.9879518,8.79866634 C42.8668675,9.40289772 42.7072289,10.0463417 42.5084337,10.7266219 C42.310241,11.4080903 42.0771084,12.1103533 41.8096386,12.8340051 C41.5421687,13.5576568 41.2614458,14.2682377 40.9686747,14.9663417 C40.6740964,15.66504 40.3722892,16.3245255 40.0614458,16.9459867 C39.7512048,17.5674479 39.4487952,18.1247429 39.1554217,18.6184659 C38.6722892,19.452626 38.2228916,20.1340944 37.8084337,20.6616829 C37.3945783,21.1898655 36.996988,21.6021925 36.6174699,21.9004463 C36.2379518,22.198106 35.8578313,22.4024871 35.4777108,22.5135897 C35.0981928,22.6240981 34.7012048,22.6793523 34.286747,22.6793523 C33.5620482,22.6793523 32.9746988,22.4666533 32.5259036,22.0412554 C32.0771084,21.6152634 31.8090361,21.0621273 31.7228916,20.381253 C32.2753012,19.955261 32.8277108,19.4829267 33.3807229,18.9636561 C33.9331325,18.4437913 34.4331325,17.912044 34.8825301,17.3678198 C34.5885542,17.2822649 34.2740964,17.0826369 33.9373494,16.7671532 C33.6006024,16.4522637 33.2337349,15.8605091 32.836747,14.9918894" id="Fill-21" fill="#FF8318"></path>
                <path d="M44.2310843,6.25744862 C44.11,6.07029731 43.9979518,5.81482092 43.8943373,5.49101944 C43.7913253,5.1678121 43.7389157,4.82737495 43.7389157,4.46970801 C43.7389157,3.80546939 43.8901205,3.32838208 44.1925301,3.03904021 C44.4943373,2.75029248 44.8871084,2.60532448 45.3708434,2.60532448 L56.6612048,2.60532448 C56.7816867,2.79247579 56.8943373,3.04795218 56.9973494,3.37115952 C57.1015663,3.694961 57.1533735,4.03539814 57.1533735,4.39247096 C57.1533735,5.05670958 57.0015663,5.53379688 56.699759,5.82313875 C56.3973494,6.11248062 56.0051807,6.25744862 55.5214458,6.25744862 L52.6473494,6.25744862 L52.6473494,18.0568931 C52.456988,18.1073943 52.1593976,18.1590837 51.7533735,18.210179 C51.3479518,18.2612742 50.9461446,18.2868219 50.549759,18.2868219 C50.1521687,18.2868219 49.8027711,18.2565212 49.5009639,18.1971081 C49.1985542,18.137695 48.9437349,18.0313455 48.736506,17.8780597 C48.5298795,17.7247738 48.3744578,17.5120749 48.2708434,17.2393687 C48.1672289,16.9672566 48.1154217,16.6095897 48.1154217,16.166962 L48.1154217,6.25744862 L44.2310843,6.25744862 Z" id="Fill-23" fill="#B3B3B3"></path>
                <path d="M61.8662651,18.1334172 C61.6933735,18.1845125 61.4216867,18.2356078 61.0506024,18.2867031 C60.6789157,18.3377983 60.2951807,18.363346 59.8981928,18.363346 C59.5186747,18.363346 59.1771084,18.3377983 58.8753012,18.2867031 C58.5728916,18.2356078 58.3186747,18.1334172 58.1114458,17.9801314 C57.9042169,17.8268456 57.7439759,17.6183055 57.6325301,17.3545113 C57.5198795,17.0907171 57.4638554,16.746121 57.4638554,16.320129 L57.4638554,8.65821374 C57.4638554,8.26668132 57.536747,7.92980896 57.6843373,7.64937906 C57.8307229,7.36835503 58.0421687,7.11703756 58.3186747,6.89542664 C58.5945783,6.67500399 58.9361446,6.47418766 59.3415663,6.29535418 C59.7463855,6.11652071 60.1831325,5.95967009 60.6487952,5.82301993 C61.1156627,5.68696389 61.5987952,5.58061442 62.0993976,5.5039715 C62.6,5.42732858 63.1006024,5.38871006 63.6012048,5.38871006 C64.4301205,5.38871006 65.0861446,5.54674894 65.5692771,5.86163845 C66.0524096,6.17652796 66.2945783,6.69163966 66.2945783,7.40637942 C66.2945783,7.64522014 66.2596386,7.87930781 66.1909639,8.10864243 C66.1216867,8.33857119 66.0355422,8.54711122 65.9319277,8.73485666 C65.5692771,8.73485666 65.1981928,8.75149233 64.8186747,8.78595194 C64.4385542,8.82041154 64.0674699,8.87091269 63.7054217,8.93923777 C63.3421687,9.00756285 63.0012048,9.07945272 62.6819277,9.15609564 C62.3620482,9.23273856 62.0903614,9.32185823 61.8662651,9.42404879 L61.8662651,18.1334172 Z" id="Fill-25" fill="#B3B3B3"></path>
                <path d="M72.5872892,15.4005922 C72.8806627,15.4005922 73.2041566,15.3708856 73.5583735,15.3114725 C73.911988,15.2514653 74.175241,15.1706634 74.3481325,15.0684729 L74.3481325,13.0252559 L72.4836747,13.1785417 C71.9999398,13.2124072 71.6029518,13.3145978 71.2927108,13.4851134 C70.9818675,13.6550349 70.8264458,13.9111054 70.8264458,14.2509484 C70.8264458,14.5919797 70.9601807,14.8682507 71.2276506,15.0809496 C71.4951205,15.2948369 71.9481325,15.4005922 72.5872892,15.4005922 M72.3800602,5.36334066 C73.311988,5.36334066 74.1625904,5.45721338 74.9306627,5.64436469 C75.6987349,5.83211013 76.3553614,6.11669895 76.8987349,6.49991354 C77.4427108,6.88312812 77.8613855,7.36793914 78.154759,7.95553484 C78.4481325,8.54313054 78.5951205,9.23707572 78.5951205,10.0367762 L78.5951205,15.7582591 C78.5951205,16.201481 78.4698193,16.5627127 78.2198193,16.8431426 C77.9692169,17.1241666 77.6710241,17.3677604 77.3258434,17.5715474 C76.2035542,18.2351919 74.6240361,18.5679053 72.5872892,18.5679053 C71.6716265,18.5679053 70.8475301,18.4823504 70.1143976,18.3124289 C69.3800602,18.1419133 68.7499398,17.887031 68.2240361,17.5459998 C67.6969277,17.2055626 67.291506,16.7712527 67.0065663,16.2430702 C66.7222289,15.7160758 66.5788554,15.1029325 66.5788554,14.4042343 C66.5788554,13.229637 66.9330723,12.3271518 67.6409036,11.6973728 C68.3487349,11.0675938 69.4451205,10.6754672 70.9300602,10.5221814 L74.3222289,10.1645144 L74.3222289,9.98627509 C74.3222289,9.49255211 74.1023494,9.13904408 73.661988,8.92634513 C73.2216265,8.71364618 72.5872892,8.60670257 71.7583735,8.60670257 C71.1023494,8.60670257 70.4637952,8.67502765 69.8421084,8.81167782 C69.2204217,8.94773385 68.6589759,9.11765536 68.1583735,9.32203647 C67.9342771,9.16875063 67.7445181,8.93466296 67.5890964,8.61977346 C67.4336747,8.30488395 67.3559639,7.97692356 67.3559639,7.63648641 C67.3559639,7.19385871 67.4637952,6.84094481 67.6800602,6.57655645 C67.8957229,6.31276223 68.228253,6.08699239 68.6770482,5.89984108 C69.1776506,5.71268977 69.7686145,5.57663374 70.4505422,5.49107886 C71.1324699,5.40552397 71.775241,5.36334066 72.3800602,5.36334066" id="Fill-27" fill="#B3B3B3"></path>
                <path d="M86.8815663,15.1453535 C87.6749398,15.1453535 88.293012,14.8774003 88.7327711,14.3408999 C89.1731325,13.8043995 89.3936145,13.0088579 89.3936145,11.9524927 C89.3936145,10.880086 89.1689157,10.0803855 88.7207229,9.55160874 C88.2713253,9.02402029 87.6671084,8.76022606 86.9074699,8.76022606 C86.5622892,8.76022606 86.2640964,8.79468567 86.0140964,8.86241662 C85.7640964,8.9307417 85.4912048,9.03233812 85.1984337,9.16898829 L85.1984337,14.7365912 C85.3881928,14.8560116 85.616506,14.9534491 85.8845783,15.030092 C86.1520482,15.1073291 86.4845783,15.1453535 86.8815663,15.1453535 L86.8815663,15.1453535 Z M80.8219277,1.53202657 C80.9948193,1.48093129 81.2707229,1.42627122 81.650241,1.36626398 C82.0303614,1.30685086 82.4189157,1.27714431 82.8159036,1.27714431 C83.1954217,1.27714431 83.5363855,1.30269195 83.8387952,1.35319309 C84.1406024,1.4048825 84.3954217,1.50647893 84.6026506,1.65976476 C84.8104819,1.81364473 84.9653012,2.02218476 85.0689157,2.28538486 C85.1725301,2.54977322 85.2243373,2.89436928 85.2243373,3.32036131 L85.2243373,5.82284169 C85.6556627,5.65292018 86.0659036,5.53349982 86.4544578,5.46517474 C86.843012,5.39744379 87.2707229,5.36357831 87.7363855,5.36357831 C88.5646988,5.36357831 89.350241,5.50854631 90.0924096,5.79788818 C90.8345783,6.08663591 91.4906024,6.50846903 92.0610843,7.06219925 C92.6309639,7.61533535 93.0791566,8.30036855 93.4074699,9.11729888 C93.7351807,9.93482333 93.8990361,10.880086 93.8990361,11.9524927 C93.8990361,13.0599531 93.7309639,14.0254163 93.3948193,14.8512585 C93.0580723,15.677695 92.586988,16.3627282 91.9833735,16.9075464 C91.3785542,17.4523647 90.6406024,17.8652858 89.7689157,18.1463099 C88.8972289,18.4267398 87.9345783,18.5675488 86.8815663,18.5675488 C85.7418072,18.5675488 84.7755422,18.4356517 83.9815663,18.1718575 C83.186988,17.9080633 82.513494,17.5801029 81.9610843,17.1885705 C81.2014458,16.660982 80.8219277,15.9795136 80.8219277,15.1453535 L80.8219277,1.53202657 Z" id="Fill-29" fill="#B3B3B3"></path>
                <path d="M100.968735,15.4005922 C101.262108,15.4005922 101.585602,15.3708856 101.939819,15.3114725 C102.293434,15.2514653 102.556687,15.1706634 102.730181,15.0684729 L102.730181,13.0252559 L100.86512,13.1785417 C100.381386,13.2124072 99.9843976,13.3145978 99.6741566,13.4851134 C99.3633133,13.6550349 99.2078916,13.9111054 99.2078916,14.2509484 C99.2078916,14.5919797 99.3416265,14.8682507 99.6090964,15.0809496 C99.8771687,15.2948369 100.329578,15.4005922 100.968735,15.4005922 M100.761506,5.36334066 C101.694036,5.36334066 102.544036,5.45721338 103.312711,5.64436469 C104.080783,5.83211013 104.736807,6.11669895 105.280181,6.49991354 C105.824759,6.88312812 106.242831,7.36793914 106.536807,7.95553484 C106.829578,8.54313054 106.977169,9.23707572 106.977169,10.0367762 L106.977169,15.7582591 C106.977169,16.201481 106.851265,16.5627127 106.601867,16.8431426 C106.351265,17.1241666 106.053072,17.3677604 105.707289,17.5715474 C104.585602,18.2351919 103.005482,18.5679053 100.968735,18.5679053 C100.053072,18.5679053 99.2289759,18.4823504 98.4958434,18.3124289 C97.7621084,18.1419133 97.131988,17.887031 96.6054819,17.5459998 C96.0783735,17.2055626 95.6729518,16.7712527 95.388012,16.2430702 C95.1036747,15.7160758 94.9609036,15.1029325 94.9609036,14.4042343 C94.9609036,13.229637 95.3145181,12.3271518 96.0229518,11.6973728 C96.7301807,11.0675938 97.8265663,10.6754672 99.311506,10.5221814 L102.704277,10.1645144 L102.704277,9.98627509 C102.704277,9.49255211 102.483795,9.13904408 102.043434,8.92634513 C101.603072,8.71364618 100.968735,8.60670257 100.140422,8.60670257 C99.4837952,8.60670257 98.8458434,8.67502765 98.2235542,8.81167782 C97.6024699,8.94773385 97.0410241,9.11765536 96.5404217,9.32203647 C96.3163253,9.16875063 96.1265663,8.93466296 95.9705422,8.61977346 C95.8151205,8.30488395 95.7374096,7.97692356 95.7374096,7.63648641 C95.7374096,7.19385871 95.845241,6.84094481 96.061506,6.57655645 C96.2771687,6.31276223 96.6096988,6.08699239 97.058494,5.89984108 C97.5590964,5.71268977 98.1500602,5.57663374 98.8325904,5.49107886 C99.5145181,5.40552397 100.156687,5.36334066 100.761506,5.36334066" id="Fill-31" fill="#B3B3B3"></path>
                <path d="M109.177771,2.29869339 C109.177771,1.65168458 109.397651,1.10686632 109.838614,0.663644487 C110.278373,0.221610917 110.860904,3.16191517e-13 111.586205,3.16191517e-13 C112.310904,3.16191517e-13 112.894036,0.221610917 113.333795,0.663644487 C113.774157,1.10686632 113.994639,1.65168458 113.994639,2.29869339 C113.994639,2.94570221 113.774157,3.49052047 113.333795,3.93314817 C112.894036,4.37637 112.310904,4.59738679 111.586205,4.59738679 C110.860904,4.59738679 110.278373,4.37637 109.838614,3.93314817 C109.397651,3.49052047 109.177771,2.94570221 109.177771,2.29869339 L109.177771,2.29869339 Z M108.297651,19.8956696 C108.676566,19.6568289 108.953072,19.3294626 109.125964,18.9123826 C109.298253,18.4947084 109.385,18.0312861 109.385,17.5203333 L109.385,5.92526989 C109.574759,5.89081029 109.85488,5.84446806 110.225964,5.78446081 C110.597651,5.7250477 110.972952,5.69534114 111.353072,5.69534114 C111.73259,5.69534114 112.074157,5.72088878 112.375964,5.77198406 C112.677771,5.82307934 112.93259,5.92526989 113.139819,6.07855573 C113.347048,6.23184157 113.506687,6.4403816 113.619337,6.70476996 C113.731386,6.96856418 113.78741,7.31316025 113.78741,7.73855815 L113.78741,17.9290955 C113.78741,18.6444294 113.700663,19.2914382 113.528373,19.870122 C113.356084,20.4488057 113.109096,20.9466876 112.789819,21.3643618 C112.470542,21.7814419 112.081988,22.1046492 111.624759,22.3351721 C111.16753,22.5645067 110.653675,22.679174 110.084398,22.679174 C109.324157,22.679174 108.728976,22.4539983 108.297651,22.0030528 C107.865723,21.5515131 107.641627,20.9853061 107.624157,20.3044318 L108.297651,19.8956696 Z" id="Fill-33" fill="#B3B3B3"></path>
                <path d="M121.451867,15.4005922 C121.745241,15.4005922 122.068735,15.3708856 122.422952,15.3114725 C122.777169,15.2514653 123.040422,15.1706634 123.213313,15.0684729 L123.213313,13.0252559 L121.348253,13.1785417 C120.864518,13.2124072 120.468133,13.3145978 120.157892,13.4851134 C119.846446,13.6550349 119.691024,13.9111054 119.691024,14.2509484 C119.691024,14.5919797 119.824759,14.8682507 120.092831,15.0809496 C120.360301,15.2948369 120.813313,15.4005922 121.451867,15.4005922 M121.244639,5.36334066 C122.177169,5.36334066 123.027169,5.45721338 123.795843,5.64436469 C124.563916,5.83211013 125.21994,6.11669895 125.763313,6.49991354 C126.307892,6.88312812 126.725964,7.36793914 127.01994,7.95553484 C127.313313,8.54313054 127.460301,9.23707572 127.460301,10.0367762 L127.460301,15.7582591 C127.460301,16.201481 127.335,16.5627127 127.085,16.8431426 C126.834398,17.1241666 126.536205,17.3677604 126.191024,17.5715474 C125.068735,18.2351919 123.489217,18.5679053 121.451867,18.5679053 C120.536205,18.5679053 119.712108,18.4823504 118.979578,18.3124289 C118.245241,18.1419133 117.61512,17.887031 117.088614,17.5459998 C116.561506,17.2055626 116.156687,16.7712527 115.871145,16.2430702 C115.586807,15.7160758 115.444036,15.1029325 115.444036,14.4042343 C115.444036,13.229637 115.797651,12.3271518 116.506084,11.6973728 C117.213916,11.0675938 118.309699,10.6754672 119.794639,10.5221814 L123.18741,10.1645144 L123.18741,9.98627509 C123.18741,9.49255211 122.966928,9.13904408 122.526566,8.92634513 C122.086807,8.71364618 121.451867,8.60670257 120.623554,8.60670257 C119.966928,8.60670257 119.328976,8.67502765 118.707289,8.81167782 C118.085602,8.94773385 117.524157,9.11765536 117.023554,9.32203647 C116.799458,9.16875063 116.609699,8.93466296 116.454277,8.61977346 C116.298253,8.30488395 116.221145,7.97692356 116.221145,7.63648641 C116.221145,7.19385871 116.328373,6.84094481 116.544639,6.57655645 C116.760301,6.31276223 117.092831,6.08699239 117.541627,5.89984108 C118.042229,5.71268977 118.633193,5.57663374 119.315723,5.49107886 C119.997651,5.40552397 120.639819,5.36334066 121.244639,5.36334066" id="Fill-35" fill="#B3B3B3"></path>
                <path d="M140.25247,14.4557454 C140.25247,15.7497631 139.760904,16.7627567 138.776566,17.4953204 C137.792229,18.2266958 136.342229,18.5926806 134.425964,18.5926806 C133.700663,18.5926806 133.027771,18.5421794 132.406084,18.4399889 C131.784398,18.3377983 131.253675,18.1803536 130.813313,17.9676546 C130.373554,17.7543616 130.027771,17.4864084 129.777169,17.1626069 C129.526566,16.8393996 129.401867,16.456185 129.401867,16.0135573 C129.401867,15.6047951 129.488012,15.260199 129.661506,14.979175 C129.833193,14.6981509 130.040422,14.4646574 130.281988,14.276912 C130.783193,14.5496182 131.356687,14.7920237 132.00488,15.0047226 C132.65247,15.2180157 133.398253,15.3243652 134.244639,15.3243652 C134.779578,15.3243652 135.189819,15.2471281 135.474157,15.0938423 C135.759699,14.9411506 135.901867,14.7361753 135.901867,14.4812931 C135.901867,14.2430465 135.798253,14.0558952 135.591627,13.919245 C135.384398,13.783189 135.038614,13.6726806 134.55488,13.5871257 L133.778373,13.4338399 C132.276566,13.144498 131.158494,12.6893936 130.425361,12.0673382 C129.691024,11.4464712 129.324157,10.5564627 129.324157,9.39850115 C129.324157,8.76872214 129.462711,8.19835624 129.738614,7.68740345 C130.014518,7.17645067 130.403072,6.75105277 130.903675,6.41061563 C131.404277,6.07017848 132.00488,5.80638425 132.703675,5.61863881 C133.403072,5.4314875 134.175361,5.33761478 135.021145,5.33761478 C135.659699,5.33761478 136.259699,5.38455114 136.821145,5.47842386 C137.381988,5.57229658 137.86994,5.71251153 138.284398,5.89966284 C138.698855,6.08681415 139.026566,6.32981379 139.268133,6.62747349 C139.510301,6.92572733 139.631386,7.27864123 139.631386,7.68740345 C139.631386,8.07953001 139.557892,8.4152141 139.410904,8.69623814 C139.263916,8.97726217 139.078373,9.21134984 138.854277,9.39850115 C138.715723,9.31354039 138.508494,9.22382659 138.231988,9.130548 C137.956084,9.03667528 137.654277,8.95171453 137.326566,8.87507161 C136.998253,8.79842869 136.666325,8.73485666 136.328976,8.68376138 C135.992831,8.6326661 135.686205,8.60652433 135.409699,8.60652433 C134.840422,8.60652433 134.40006,8.6706905 134.089217,8.79842869 C133.778373,8.92616689 133.622952,9.12638908 133.622952,9.39850115 C133.622952,9.58624659 133.709699,9.73953242 133.881988,9.85835865 C134.054277,9.97777901 134.38259,10.0882874 134.866325,10.190478 L135.668735,10.3693114 C137.326566,10.7436141 138.50488,11.2593199 139.203675,11.9140524 C139.903072,12.5705673 140.25247,13.4172042 140.25247,14.4557454" id="Fill-37" fill="#B3B3B3"></path>
            </g>
        </g>
    </g>
</svg>