<?xml version="1.0" encoding="UTF-8"?>
<svg width="44px" height="44px" viewBox="0 0 44 44" version="1.1" xmlns="http://www.w3.org/2000/svg" xmlns:xlink="http://www.w3.org/1999/xlink">
    <!-- Generator: Sketch 55.2 (78181) - https://sketchapp.com -->
    <title>Group 69</title>
    <desc>Created with Sketch.</desc>
    <g id="Desktop" stroke="none" stroke-width="1" fill="none" fill-rule="evenodd">
        <g id="Group-69" transform="translate(0.305920, 0.000000)">
            <rect id="Rectangle-Copy" x="-1.77635684e-14" y="-1.77635684e-14" width="43.3094405" height="43.3094405"></rect>
            <circle id="Oval-Copy-2" fill="#00FDFF" cx="29.0707203" cy="14.2387202" r="14.2387202"></circle>
            <path d="M8.27010644,18.0266441 L9.75425763,9.74647508 C10.0269677,8.22260573 11.018937,6.44457398 12.913783,6.44457398 L22.6813666,6.44457398 C24.5762126,6.44457398 25.5670954,8.22260573 25.8398054,9.74647508 L27.3272161,18.0266441 C27.6086181,19.5891903 26.9382512,20.8047496 26.3265549,21.549556 C25.1824764,22.9463441 23.3441281,23.8127064 21.5296826,23.8127064 L14.0654669,23.8127064 C12.2510215,23.8127064 10.4137597,22.9463441 9.26968118,21.550661 C8.6579849,20.8058547 7.98870443,19.5902954 8.27010644,18.0266441 M14.0654669,24.9177603 L21.5296826,24.9177603 C23.6581249,24.9177603 25.8159026,23.8989006 27.162069,22.2578955 C28.2355253,20.9484066 28.6733825,19.3748099 28.3963265,17.8277344 L26.9089158,9.54756538 C26.4493287,6.99157567 24.790252,5.33952006 22.6813666,5.33952006 L12.913783,5.33952006 C10.8048976,5.33952006 9.14473434,6.99157567 8.68514726,9.54756538 L7.20099607,17.8277344 C6.92285354,19.3759149 7.36071073,20.9495117 8.43416708,22.2590006 C9.779247,23.8989006 11.9370246,24.9177603 14.0654669,24.9177603" id="Fill-1" stroke="#000000" stroke-width="0.593280007" fill="#000000"></path>
            <path d="M8.60369108,42.178152 C8.08117814,42.178152 7.65706048,41.7539188 7.65706048,41.2323948 C7.65706048,40.7120021 8.08117814,40.287769 8.60369108,40.287769 C9.12394207,40.287769 9.54805972,40.7120021 9.54805972,41.2323948 C9.54805972,41.7539188 9.12394207,42.178152 8.60369108,42.178152 M8.60369108,39.1564805 C7.45800793,39.1564805 6.52608008,40.0875309 6.52608008,41.2323948 C6.52608008,42.3772588 7.45800793,43.3094405 8.60369108,43.3094405 C9.74824325,43.3094405 10.6790401,42.3772588 10.6790401,41.2323948 C10.6790401,40.0875309 9.74824325,39.1564805 8.60369108,39.1564805" id="Fill-3" stroke="#000000" stroke-width="0.593280007" fill="#000000"></path>
            <path d="M26.9936747,42.178152 C26.473282,42.178152 26.0490488,41.7539188 26.0490488,41.2323948 C26.0490488,40.7120021 26.473282,40.287769 26.9936747,40.287769 C27.5151987,40.287769 27.9394319,40.7120021 27.9394319,41.2323948 C27.9394319,41.7539188 27.5151987,42.178152 26.9936747,42.178152 M26.9936747,39.1564805 C25.8488107,39.1564805 24.9177603,40.0875309 24.9177603,41.2323948 C24.9177603,42.3772588 25.8488107,43.3094405 26.9936747,43.3094405 C28.1396699,43.3094405 29.0707203,42.3772588 29.0707203,41.2323948 C29.0707203,40.0875309 28.1396699,39.1564805 26.9936747,39.1564805" id="Fill-5" stroke="#000000" stroke-width="0.593280007" fill="#000000"></path>
            <g id="Group-9" transform="translate(0.000000, 19.578240)" fill="#000000" stroke="#000000" stroke-width="0.593280007">
                <path d="M9.7667712,10.4455002 C9.21410335,10.4455002 8.7649231,9.99834288 8.7649231,9.44791087 L8.7649231,8.49316952 C8.7649231,7.94273752 9.21410335,7.49338285 9.7667712,7.49338285 L25.8789106,7.49338285 C26.4304775,7.49338285 26.8796578,7.94273752 26.8796578,8.49316952 L26.8796578,9.44791087 C26.8796578,9.99834288 26.4304775,10.4455002 25.8789106,10.4455002 L9.7667712,10.4455002 Z M18.7415686,21.6409137 C18.7415686,22.147399 18.3287191,22.559399 17.8222904,22.559399 C17.3147608,22.559399 16.9019113,22.147399 16.9019113,21.6409137 C16.9019113,21.1344283 17.3147608,20.7224283 17.8222904,20.7224283 C18.3287191,20.7224283 18.7415686,21.1344283 18.7415686,21.6409137 L18.7415686,21.6409137 Z M31.439718,0.692636097 C30.4312643,1.68033744 30.4554848,3.5579588 30.4819072,5.54654549 C30.5072286,7.34945751 30.5314491,9.21499353 29.7299706,10.0104282 C29.4217097,10.3158575 29.0165667,10.4597829 28.4000448,10.4476975 L27.9938009,10.4455002 C27.9090292,10.4444015 27.814349,10.4444015 27.717467,10.4433029 C27.879304,10.1455642 27.9805897,9.80937221 27.9805897,9.44791087 L27.9805897,8.49316952 C27.9805897,7.33627351 27.038192,6.39471617 25.8789106,6.39471617 L18.3727564,6.39471617 L18.3727564,5.37295615 L17.2718245,5.37295615 L17.2718245,6.39471617 L9.7667712,6.39471617 C8.6063889,6.39471617 7.66399113,7.33627351 7.66399113,8.49316952 L7.66399113,9.44791087 C7.66399113,9.80937221 7.76527687,10.1455642 7.92711387,10.4433029 C7.82913093,10.4444015 7.73445078,10.4444015 7.64967902,10.4455002 L7.24563698,10.4476975 C6.65994117,10.4630789 6.22177025,10.3158575 5.91461023,10.0104282 C5.11313175,9.21499353 5.13845319,7.35055618 5.16267369,5.54654549 C5.19019699,3.5579588 5.21551843,1.68033744 4.20706474,0.692636097 C3.76008636,0.255366759 3.16338123,0.0422254227 2.41584842,0.0674947564 L0.0730651852,0.136710757 L0.106093144,1.23537744 L2.44997731,1.16616144 C2.88814824,1.15517477 3.20741851,1.2529561 3.43531143,1.47708411 C4.10798086,2.13628411 4.08486129,3.86228947 4.06174172,5.53116416 C4.03421842,7.56369751 4.00669512,9.66544687 5.13845319,10.7893829 C5.6448819,11.2925722 6.33296438,11.5463642 7.18618666,11.5463642 C7.21370996,11.5463642 7.24123325,11.5463642 7.26765562,11.5463642 L7.65628461,11.5441669 C8.19794314,11.5408709 9.08529431,11.5331802 9.16456141,11.5254896 L9.15795582,11.4441882 C9.35171984,11.5024176 9.55429133,11.5441669 9.7667712,11.5441669 L17.2718245,11.5441669 L17.2718245,15.3543429 C16.1995167,15.3949936 15.1327136,15.5290309 14.1374711,15.8080923 C13.006814,16.1223109 11.9840482,16.5793563 11.0944952,17.1649456 C10.1950337,17.760423 9.48603355,18.4580763 8.98731136,19.2381297 L9.91649795,19.8292123 C10.3315493,19.1788017 10.9326582,18.591015 11.7022096,18.0812336 C12.4948806,17.559367 13.4141588,17.150663 14.4336218,16.8661083 C15.3341842,16.6145136 16.3008025,16.4925616 17.2718245,16.451911 L17.2718245,19.7094577 C16.4263087,19.9511643 15.8009793,20.720231 15.8009793,21.6409137 C15.8009793,22.7527644 16.7081473,23.6580657 17.8222904,23.6580657 C18.9364336,23.6580657 19.8425006,22.7527644 19.8425006,21.6409137 C19.8425006,20.720231 19.2182722,19.9511643 18.3727564,19.7105563 L18.3727564,16.451911 C19.3448794,16.4925616 20.3103967,16.6145136 21.210959,16.8661083 C22.2304221,17.150663 23.1497002,17.559367 23.9412703,18.080135 C24.7130236,18.5921136 25.3141325,19.1799003 25.7280829,19.8292123 L26.6572695,19.2381297 C26.1596483,18.459175 25.4506481,17.7615216 24.5489848,17.1649456 C23.6605327,16.5793563 22.6366659,16.1223109 21.5071097,15.8080923 C20.5129682,15.5290309 19.4461651,15.3949936 18.3727564,15.3543429 L18.3727564,11.5441669 L25.8789106,11.5441669 C26.0913905,11.5441669 26.293962,11.5024176 26.487726,11.4441882 L26.4800195,11.5254896 C26.5592866,11.5331802 27.4466377,11.5408709 27.9871953,11.5441669 L28.3769253,11.5463642 C28.4055495,11.5463642 28.4319719,11.5463642 28.4594951,11.5463642 C29.3116165,11.5463642 29.999699,11.2925722 30.5061277,10.7893829 C31.6389867,9.66544687 31.6103625,7.56369751 31.5828392,5.53116416 C31.5608205,3.86228947 31.5377009,2.13628411 32.2103704,1.47708411 C32.4371624,1.25405477 32.7399187,1.14858277 33.1979064,1.16616144 L35.5373868,1.23537744 L35.5693138,0.136710757 L33.2309343,0.068593423 C32.4800987,0.037830756 31.8866964,0.255366759 31.439718,0.692636097 L31.439718,0.692636097 Z" id="Fill-7"></path>
            </g>
        </g>
    </g>
</svg>