<svg xmlns="http://www.w3.org/2000/svg" width="21" height="20" viewBox="0 0 21 20">
    <g fill="#005C58" fill-rule="nonzero" stroke="#005C58" stroke-width=".3">
        <path d="M8.8 9H7v5h.6v-2.143h1.2c.66 0 1.2-.643 1.2-1.428C10 9.643 9.46 9 8.8 9zm0 2.143H7.6V9.714h1.2c.36 0 .6.286.6.715 0 .428-.24.714-.6.714zM12.8 9H11v5h1.8c.66 0 1.2-.643 1.2-1.429V10.43C14 9.643 13.46 9 12.8 9zm.6 3.571c0 .429-.24.715-.6.715h-1.2V9.714h1.2c.36 0 .6.286.6.715v2.142z"/>
        <path d="M18.1 7.667h-5.067v-2L9.233 1H2.267C1.57 1 1 1.6 1 2.333v15.334C1 18.4 1.57 19 2.267 19h9.5c.696 0 1.266-.6 1.266-1.333v-1.334H18.1c1.077 0 1.9-.866 1.9-2V9.667c0-1.134-.823-2-1.9-2zM9.233 2l2.977 3.667H9.867c-.317 0-.634-.334-.634-.667V2zM12.4 17.667c0 .333-.253.666-.633.666h-9.5a.651.651 0 0 1-.634-.666V2.333c0-.333.254-.666.634-.666H8.6V5c0 .733.57 1.333 1.267 1.333H12.4v1.334H7.333c-1.076 0-1.9.866-1.9 2v4.666c0 1.134.824 2 1.9 2H12.4v1.334zm6.967-3.334c0 .734-.57 1.334-1.267 1.334H7.333c-.696 0-1.266-.6-1.266-1.334V9.667c0-.734.57-1.334 1.266-1.334H18.1c.697 0 1.267.6 1.267 1.334v4.666z"/>
        <path d="M15 14h.6v-2.143h1.8v-.714h-1.8V9.714H18V9h-3z"/>
    </g>
</svg>
