<svg xmlns="http://www.w3.org/2000/svg" width="30" height="30" viewBox="0 0 30 30">
    <g fill="#FF6E00" fill-rule="nonzero">
        <path d="M14.92 0C6.68 0 0 6.68 0 14.92s6.68 14.92 14.92 14.92 14.92-6.68 14.92-14.92C29.831 6.684 23.156.009 14.92 0zm.785 28.23v-1.531a.785.785 0 0 0-1.57 0v1.53A13.345 13.345 0 0 1 1.61 15.706h1.531a.785.785 0 0 0 0-1.57h-1.53A13.345 13.345 0 0 1 14.134 1.61v1.53a.785.785 0 1 0 1.57 0V1.61A13.345 13.345 0 0 1 28.23 14.134h-1.531a.785.785 0 0 0 0 1.571h1.53A13.345 13.345 0 0 1 15.706 28.23z"/>
        <path d="M24.591 17.316l-4.266-1.422a5.497 5.497 0 1 0-9.802 2.311l-.871.871a.785.785 0 1 0 1.09 1.13l.02-.02.873-.869a5.474 5.474 0 0 0 8.192-1.932l4.268 1.423a.786.786 0 1 0 .496-1.492zm-9.67 1.53c-.77 0-1.522-.228-2.163-.654l1.76-1.76c.506.145 1.05.017 1.436-.34l2.35.786a3.915 3.915 0 0 1-3.384 1.968zm3.878-3.46l-2.34-.78a1.57 1.57 0 0 0-3.11.314c.002.136.022.27.06.401l-1.761 1.76a3.926 3.926 0 1 1 7.198-2.161 3.824 3.824 0 0 1-.047.466z"/>
    </g>
</svg>
