<svg xmlns="http://www.w3.org/2000/svg" width="21" height="15" viewBox="0 0 21 15">
    <g fill="#005C58" fill-rule="nonzero">
        <path d="M19.777 3.613l-.382-.27c-.383-.27-.767-.542-1.153-.807a53.94 53.94 0 0 1-1.21-.863 47.883 47.883 0 0 0-1.408-.998c-.065-.044-.13-.093-.2-.144-.342-.255-.841-.58-1.387-.525-.74.072-1.315.82-1.315 1.445v1.648h-.065C11.04 3.099 3 3.505 3 11.529a.485.485 0 0 0 .497.471.48.48 0 0 0 .451-.317c.06-.17 1.478-4.16 7.847-4.16.32 0 .69.01.927.03v1.538c0 .513.38 1.026.877 1.307.173.097.387.147.58.147.47 0 .863-.292 1.166-.526.082-.063.166-.123.239-.17.282-.18.564-.376.834-.564.136-.096.274-.191.41-.284.746-.509 1.494-1.044 2.216-1.56l.206-.148c.094-.067.19-.132.285-.199.08-.054.16-.11.223-.155C20.311 6.58 21 6.132 21 5.271c0-.83-.57-1.216-1.223-1.658zm-.552 2.546l-.23.16c-.1.069-.199.138-.297.208l-.206.147c-.719.514-1.462 1.046-2.199 1.549-.14.095-.278.192-.417.29-.262.183-.531.372-.797.542a4.106 4.106 0 0 0-.3.218c-.18.139-.424.328-.57.328a.38.38 0 0 1-.142-.024c-.192-.11-.397-.318-.397-.486V7.115c0-.245-.129-.45-.374-.47a16.857 16.857 0 0 0-1.47-.066c-4.2 0-6.477 1.621-7.66 2.98.44-1.977 1.599-3.45 3.446-4.393 1.987-1.014 4.23-1.123 5.1-1.123.252 0 .402-.036.41-.035.01 0 .022-.045.033-.045h.16c.262 0 .355-.121.355-.382v-2.13c0-.218.273-.487.46-.506.19-.013.471.174.698.342.08.06.174.119.25.17.464.312.936.65 1.386.978.4.291.818.592 1.236.879.383.262.765.53 1.144.799l.392.275c.693.47.815.602.815.883 0 .3-.25.513-.826.888z"/>
        <path d="M14.98 15c1.22 0 2.02-.81 2.02-2.002v-1.191a.478.478 0 0 0-.486-.469.478.478 0 0 0-.485.469v1.19c0 .68-.36 1.065-1.05 1.065H2.378c-.72 0-1.406-.417-1.406-1.064V3.193c0-.643.698-1.255 1.406-1.255h4.787c.268 0 .486-.21.486-.47A.478.478 0 0 0 7.164 1H2.377C1.133 1 0 2.033 0 3.193v9.805C0 14.15 1.133 15 2.377 15H14.98z"/>
    </g>
</svg>
